<?xml version="1.0" encoding="UTF-8" standalone="no"?>
<svg
   viewBox="0 0 300 188.47182"
   version="1.1"
   id="svg206"
   width="300"
   height="188.47182"
   xmlns="http://www.w3.org/2000/svg"
   xmlns:svg="http://www.w3.org/2000/svg">
  <defs id="defs11"></defs>
  <path
     fill="#4c83c3"
     d="m 86.7926,123.35192 v 0.4307 l 0.2767,0.1791 v -0.4264 l -0.0289,-0.02 z"
     id="path13" />
  <path
     fill="#4c83c3"
     d="m 86.7926,122.98082 v 0.4307 l 0.2767,0.1791 v -0.4264 l -0.0289,-0.02 z"
     id="path15" />
  <path
     fill="#b22c1b"
     d="m 288.1,88.442116 -23.88,-0.003 c 10.5223,7.8552 16.4693,16.016804 17.6822,24.261004 0.9652,6.5931 -1.0986,13.256 -6.1343,19.8063 l -0.2032,0.2635 c -9.1539,11.6717 -27.8394,20.4922 -35.45,23.7419 -0.86,0.262 -1.7241,0.5175 -2.5973,0.7731 H 288.1 a 11.94,11.94 0 0 0 11.9,-11.9543 v -44.9374 A 11.9386,11.9386 0 0 0 288.1,88.442116 Z"
     id="path53" />
  <path
     fill="#b22c1b"
     d="m 225.4865,88.440516 a 11.9393,11.9393 0 0 0 -11.8971,11.952704 v 44.9358 a 11.94,11.94 0 0 0 11.8971,11.9558 h 0.1779 l 1.3589,-0.4508 c 30.5255,-10.1 50.1064,-25.4041 51.0939,-39.9429 1.0033,-14.6357 -17.19,-26.701104 -19.27,-28.028304 l -0.5525,-0.4223 z"
     id="path55" />
  <path
     fill="#b22c1b"
     d="m 278.1172,116.89112 c -0.9875,14.5388 -20.5684,29.8429 -51.0939,39.9429 l -1.3589,0.4508 h -0.1779 a 11.94,11.94 0 0 1 -11.8971,-11.9558 v -44.9358 a 11.9393,11.9393 0 0 1 11.8971,-11.952704 h 32.8084 l 0.5525,0.4223 c 2.0797,1.3272 20.2731,13.392604 19.2698,28.028304 z"
     id="path57" />
  <path
     fill="#b22c1b"
     d="m 284.7088,32.447616 a 34.04,34.04 0 0 0 0.4956,-5.7043 24.79,24.79 0 0 0 -11.5422,-21.6045001 c -10.1014,-6.6562 -24.6032,-6.8713 -34.48,-0.4987 -7.6634,4.9415 -11.7118,12.9112001 -11.7118,23.0452001 a 42.7774,42.7774 0 0 0 0.5477,6.64 41.6923,41.6923 0 0 0 16.1089,26.934 c -4.5537,-1.2355 -10.5025,-1.8254 -13.0775,2.3533 -1.2679,2.057 -0.9583,4.0518 0.8312,5.336 3.3117,2.3763 11.36,1.7472 16.22,-1.0333 l -3.3345,7.7709 h 22.3933 l -4.4788,-8.9606 c 5.4176,2.2654 11.6986,4.3124 15.0919,2.2425 a 4.7412,4.7412 0 0 0 2.2263,-4.0681 4.8823,4.8823 0 0 0 -1.9885,-4.5308 c -1.708,-1.2093 -4.5014,-1.5125 -8.3184,-0.8963 0.3945,-0.3227 0.7725,-0.6456 1.1473,-0.978 5.0752,-4.5211 11.6007,-12.7092 13.8695,-26.0473 z m -51.1788,34.2092 c -0.3227,-0.2313 -0.72,-0.5216 -0.075,-1.5645 1.94,-3.1619 8.4229,-1.9493 13.6937,0.1466 -4.0548,2.6956 -11.5194,2.9272 -13.6187,1.4179 z m 42.857,-3.9831 a 2.0928,2.0928 0 0 1 0.7954,2.0762 2.0582,2.0582 0 0 1 -0.88,1.8091 c -1.2776,0.7824 -4.5569,0.9356 -12.8493,-2.5653 5.0589,-1.6851 10.7992,-2.8227 12.9341,-1.32 z m -16.49,-0.4043 c -0.339,0.1337 -0.5932,0.2348 -0.7138,0.2835 l -0.9876,0.3424 -0.4727,0.2314 0.0163,0.0292 -1.63,0.6749 2.5263,1.131 3.9571,7.9044 h -13.54 l 3.8984,-9.0941 -1.4179,-0.8442 c -11.7931,-6.9979 -18.7688,-16.7706 -20.7245,-29.0461 a 39.4619,39.4619 0 0 1 -0.5085,-6.1607 c 0,-9.1528 3.6018,-16.3142 10.4144,-20.7082001 8.9767,-5.789 22.1846,-5.59 31.3929,0.4825 a 22.1248,22.1248 0 0 1 10.2709,19.2900001 31.31,31.31 0 0 1 -0.4532,5.1923 c -3.6344,21.3866 -18.9705,28.9781 -22.0282,30.2917 z"
     id="path59" />
  <path
     fill="#b22c1b"
     d="m 263.0214,87.885116 -0.1938,-0.1349 c -0.003,-0.0032 -0.0358,-0.02 -0.0879,-0.0521 a 17.8356,17.8356 0 0 1 -8.1261,-12.0116 h -3.0413 a 18.4894,18.4894 0 0 0 6.2291,12.0116 c 0.0764,0.0646 0.1589,0.1257 0.2387,0.1886 h 0.4433 l 0.0764,0.0573 0.2883,0.22 4.0844,-0.003 -0.3937,-0.2761 z"
     id="path61" />
  <path
     fill="#b22c1b"
     d="M 258.4834,87.886716 H 258.04 c 0.1174,0.0927 0.233,0.1864 0.3514,0.2775 h 0.4566 l -0.2883,-0.22 z"
     id="path63" />
  <polygon
     fill="#b22c1b"
     points="273.021,99.885 272.539,99.885 272.932,100.161 273.418,100.161 "
     id="polygon65"
     transform="translate(-10,-11.999984)" />
  <path
     fill="#fdbb30"
     d="m 147.5429,93.652416 12.7969,3.59 -11.4444,4.702504 8.9867,2.5193 -6.2519,5.097 v 13.745 h 5.2707 l 1.8254,-12.8653 0.2445,-0.1035 c 13.6772,-5.7082 14.6322,-18.803204 14.6811,-21.435704 v -0.4625 h -20.75 l -0.3912,0.4625 z"
     id="path67" />
  <path
     fill="#fdbb30"
     d="m 140.0994,102.52202 11.125,-4.553804 -9.557,-2.9138 6.7147,-6.1545 0.4467,-0.4593 H 126.69 v 0.4594 c 0.1532,2.7586 0.5964,16.403404 14.2932,21.532704 l 0.264,0.0971 0.0358,0.2781 1.584,12.4966 h 5.7827 v -15.0938 l 3.064,-2.5193 z"
     id="path69" />
  <rect
     fill="#fdbb30"
     x="148.7016"
     y="36.817314"
     width="2.8229001"
     height="24.2187"
     id="rect71" />
  <rect
     fill="#fdbb30"
     x="-15.310596"
     y="124.10098"
     width="2.8220999"
     height="22.072201"
     transform="rotate(-63.4386)"
     id="rect73" />
  <rect
     fill="#fdbb30"
     x="33.730007"
     y="120.41885"
     width="2.8227"
     height="23.701799"
     transform="rotate(-48.3835)"
     id="rect75" />
  <polygon
     fill="#fdbb30"
     points="138.778,54.33 147.948,75.55 148.137,75.98 150.728,74.859 141.559,53.636 141.373,53.209 "
     id="polygon77"
     transform="translate(-10,-11.999984)" />
  <rect
     fill="#fdbb30"
     x="122.3644"
     y="146.7426"
     width="22.072201"
     height="2.8220999"
     transform="rotate(-26.5632)"
     id="rect79" />
  <rect
     fill="#fdbb30"
     x="80.320282"
     y="162.84976"
     width="23.7019"
     height="2.8227"
     transform="rotate(-41.621)"
     id="rect81" />
  <rect
     fill="#fdbb30"
     x="5.6484385"
     y="171.34323"
     width="23.5849"
     height="2.8237"
     transform="rotate(-66.6032)"
     id="rect83" />
  <path
     fill="#fdbb30"
     d="m 193.4293,145.47212 v -45.0469 A 11.969,11.969 0 0 0 181.4987,88.443716 H 177.21 l -0.0191,0.4616 c -0.3533,9.6737 -4.571,15.670804 -8.063,19.005204 a 19.95,19.95 0 0 1 -7.4359,4.7748 l -2.002,13.8723 h -19.523 l -1.7125,-13.7609 c -14.6857,-5.63 -15.2446,-21.063104 -15.4086,-24.101504 l -0.0111,-0.2546 -4.3037,0.003 a 11.97,11.97 0 0 0 -11.9306,11.981504 v 45.0469 a 11.95,11.95 0 0 0 10.2226,11.8127 h 66.1838 a 11.9486,11.9486 0 0 0 10.2224,-11.8127 z m -53.0379,-15.6408 h 19.4079 v 2.8617 h -19.4079 z m 0,5.483 h 19.4079 v 2.8617 h -19.4079 z m 13.3786,13.8278 h -7.6428 v -2.8621 h 7.6428 z m 6.0815,-5.4831 h -19.4076 v -2.8617 h 19.4079 z"
     id="path85" />
  <path
     fill="#4c83c3"
     d="m 21.16,145.65512 c -5.54,-2.2951 -8.4179,-5.0358 -8.5548,-8.1474 -0.2053,-4.8018 6.1547,-8.7139 8.4816,-9.9793 a 9.4756,9.4756 0 0 1 -0.522,-7.6253 c 1.6823,-4.2495 6.3806,-5.9477 6.58,-6.0178 a 16.1623,16.1623 0 0 1 6.7117,-1.6409 10.7786,10.7786 0 0 1 4.0968,0.7862 12.4132,12.4132 0 0 1 6.134,5.8507 11.7353,11.7353 0 0 1 6.2565,-2.2568 6.3955,6.3955 0 0 1 1.9752,0.3055 7.0254,7.0254 0 0 1 3.9042,3.4458 17.38,17.38 0 0 1 11.8446,-4.4819 c 8.394,0 16.2883,5.308 18.5086,6.9362 l 0.0541,0.0382 v -22.4829 A 11.9521,11.9521 0 0 0 74.7,88.439016 H 11.9306 A 11.9521,11.9521 0 0 0 0,100.38542 v 44.9163 a 11.9522,11.9522 0 0 0 11.9306,11.9465 h 6.9982 l -0.0493,-0.1146 c -1.5646,-4.4836 1.1443,-9.6195 2.2805,-11.4785 z"
     id="path87" />
  <path
     fill="#4c83c3"
     d="m 49.9364,168.32502 c -4.0745,0 -7.3862,2.7477 -7.3862,6.128 0,3.3803 3.3117,6.1281 7.3862,6.1281 4.0745,0 7.39,-2.7479 7.39,-6.1281 0,-3.3802 -3.3155,-6.128 -7.39,-6.128 z m 0,9.8993 c -2.7737,0 -5.0294,-1.6916 -5.0294,-3.7713 0,-2.0797 2.2557,-3.7714 5.0294,-3.7714 2.7737,0 5.0328,1.6918 5.0328,3.7714 0,2.0796 -2.2592,3.7713 -5.0328,3.7713 z"
     id="path89" />
  <path
     fill="#4c83c3"
     d="m 34.5266,174.48882 c -3.2957,0.3349 -5.737,2.9353 -5.446,5.7984 0.2806,2.76 2.9956,4.51 6.4581,4.1579 3.4595,-0.3516 5.77,-2.612 5.49,-5.3723 -0.2915,-2.8628 -3.2087,-4.9188 -6.5021,-4.584 z m 0.796,7.8309 c -1.8236,0.1854 -3.8674,-0.4414 -4.0518,-2.2551 -0.1718,-1.69 1.3848,-3.2383 3.4719,-3.4505 2.0843,-0.2118 3.9205,0.9913 4.0923,2.6816 0.1844,1.8137 -1.6917,2.839 -3.5124,3.0243 z"
     id="path91" />
  <path
     fill="#4c83c3"
     d="m 86.5285,126.97302 -0.2674,-0.2022 c -6.446,-5.1106 -12.4192,-7.7017 -17.7542,-7.7017 a 15.8648,15.8648 0 0 0 -2.8458,0.2547 15.4253,15.4253 0 0 0 -9.8694,6.5637 l -1.0617,1.7937 -0.312,-2.0595 c -0.8213,-5.3636 -3.5174,-5.7186 -3.5715,-5.7265 a 2.9493,2.9493 0 0 0 -0.59,-0.0573 c -2.9333,0 -6.8216,3.8978 -6.8629,3.9408 l -0.9152,0.9263 -0.3327,-1.2542 c -2.0642,-7.681 -7.264,-7.8418 -7.4582,-7.845 -7.04,0.5714 -9.7612,3.7832 -9.7962,3.8246 -3.5142,3.96 0.2451,8.1713 0.6844,8.636 l 0.7385,0.77 -0.982,0.4266 c -9.8759,4.2845 -9.3077,7.9118 -9.2965,7.9707 0.3374,2.6038 6.0846,5.2459 9.6275,6.2979 l 1.0091,0.3024 -0.6239,0.8515 c -5.6677,7.724 -3.9726,11.5422 -3.5668,12.2234 l 0.1226,0.3374 H 74.7 a 11.9685,11.9685 0 0 0 11.9289,-11.9815 l -0.06,-0.6127 -0.2786,-0.1655 0.339,-0.2977 z"
     id="path93" />
  <path
     fill="#4c83c3"
     d="m 87.37,123.66822 c -0.0648,-0.0423 -0.1217,-0.0875 -0.1862,-0.1329 v 0.4264 l -0.2767,-0.1791 v 3.1 c 0.1108,0.0718 0.2868,0.1923 0.4629,0.32 1.4082,0.9973 4.5243,3.592 4.8862,7.2688 0.3,3.0379 -1.35,6.1672 -4.8862,9.3028 -0.0424,0.0424 -0.0816,0.0816 -0.1271,0.1206 l -0.3358,0.2966 -0.2346,0.2053 0.2346,0.0914 0.4629,0.1858 0.0066,0.003 c 0.0521,0.0228 5.1663,2.1806 2.7314,9.7463 -0.0359,0.1171 -3.53,11.7409 -17.7646,11.7409 H 72.223 c -0.0781,0.013 -8.7551,0.45 -20.2908,-6.0824 l -0.3161,-0.1761 -0.2511,0.2608 c -0.0553,0.0587 -5.6324,5.789 -11.9952,5.6587 -0.0814,0.0163 -5.6684,0.427 -9.3028,-6.9071 l -0.1859,-0.3682 -0.3877,0.1335 c -0.0458,0.0131 -4.244,1.4049 -6.4768,-0.6942 a 3.783,3.783 0 0 1 -0.414,-0.4629 h -0.6162 l -0.0031,-0.007 h -2.1515 v 0.007 h -0.181 l 0.1184,0.2767 h -0.3279 c 0.0213,0.0547 0.0434,0.1114 0.0744,0.1862 0.4693,1.1213 2.4707,4.7 8.8662,3.8919 0.8017,1.32 4.4882,6.7181 10.9813,6.7181 h 0.0034 c 0.2314,0.0195 5.7467,0.4822 12.6667,-5.1633 1.7667,0.9127 11.1772,5.5608 19.4043,5.5608 a 19.4481,19.4481 0 0 0 2.2394,-0.1238 c 0.2053,0.003 13.162,0.1011 18.7262,-12.4711 0.0358,-0.0718 3.4225,-6.9495 -1.4537,-12.2692 1.1473,-1.0952 4.5307,-4.7491 4.244,-9.56 -0.2316,-3.9327 -2.8685,-7.5993 -7.8235,-10.9045 z"
     id="path95" />
  <path
     fill="#4c83c3"
     d="M 19.6508,157.52542 H 19.35 l 0.0324,0.1174 c 0,0.004 0.0249,0.0708 0.0593,0.1593 h 0.3279 z"
     id="path97" />
  <path
     fill="#4c83c3"
     d="m 86.9075,123.35192 v 0.4307 l 0.2767,0.1791 v -0.4264 l -0.0288,-0.02 z"
     id="path99" />
  <path
     fill="#4c83c3"
     d="m 21.8009,179.08472 c -3.2435,0 -5.2554,1.5248 -5.2554,3.9793 0,2.4545 2.0119,3.9793 5.2554,3.9793 3.24,0 5.2526,-1.5246 5.2526,-3.9793 0,-2.4547 -2.0122,-3.9793 -5.2526,-3.9793 z m -0.0033,5.8464 c -1.4556,0 -3.1958,-0.3213 -3.1958,-1.8674 0,-1.5417 1.74,-1.8632 3.1958,-1.8632 1.4591,0 3.2,0.3215 3.2,1.8632 -5e-4,1.5463 -1.7409,1.8674 -3.2,1.8674 z"
     id="path101" />
  <path
     fill="#4c83c3"
     d="m 10.3227,188.47182 c -2.2526,0 -3.8873,-1.1862 -3.8873,-2.82 0,-1.69 1.7078,-3.0136 3.8873,-3.0136 2.1795,0 3.8862,1.324 3.8862,3.0136 0,1.6338 -1.6347,2.82 -3.8862,2.82 z"
     id="path199" />
  <path
     fill="#4c83c3"
     d="m 19.8858,157.40482 h -0.301 l 0.0324,0.1173 c 0,0.004 0.0249,0.0708 0.0593,0.1592 h 0.3276 z"
     id="path201" />
  <path
     fill="#4c83c3"
     d="m 87.091,123.25752 v 0.43 l 0.2765,0.1789 v -0.426 l -0.0288,-0.02 z"
     id="path203" />
</svg>
