<?xml version="1.0" encoding="UTF-8" standalone="no"?>
<svg
   viewBox="0 0 595.0473 357.28662"
   version="1.1"
   id="svg229"
   xmlns="http://www.w3.org/2000/svg"
   xmlns:svg="http://www.w3.org/2000/svg">
  <defs
     id="defs226" />
  <g
     id="layer1"
     transform="translate(192.66327,98.477567)">
    <g
       id="g763"
       transform="translate(60.504189,-6.368862)">
      <path
         style="fill:#fbde34;stroke-width:0.352778"
         d="m 181.65985,264.62748 c -5.9217,-0.87652 -12.50735,-3.84842 -18.06664,-8.15291 -2.69367,-2.08569 -33.75773,-31.92671 -72.793606,-69.92765 -13.652881,-13.29091 -25.649241,-24.72922 -26.65858,-25.41848 -3.825336,-2.61225 -7.557495,-2.9852 -15.729755,-1.57187 -50.6660145,8.76232 -94.76444,-35.96865 -85.52212,-86.748828 1.12631,-6.18829 1.092605,-6.109635 3.193852,-7.453786 2.441212,-1.561623 1.786065,-1.93457 6.657435,3.789776 C -10.30645,89.065324 -6.689395,92.167966 -0.44845269,92.141818 5.0357954,92.118852 7.3283217,90.456197 19.522315,77.65813 34.930272,61.486887 35.51176,60.751201 36.555675,56.107904 37.874044,50.24383 36.647023,48.171243 22.424734,32.239081 10.299628,18.656232 10.973666,19.553099 12.354114,18.839243 c 7.133385,-3.688818 21.268789,-4.743271 33.058544,-2.466055 39.481171,7.625864 66.137682,43.714064 60.946352,82.510606 -1.26471,9.451516 -0.69988,12.330626 3.23486,16.489146 0.98351,1.03946 23.06073,22.54087 49.06045,47.78089 49.80485,48.34957 49.42297,47.96569 52.57081,52.84525 15.11469,23.4297 -2.62968,52.61531 -29.56528,48.6284 z m 11.91838,-14.62316 c 6.10006,-1.69346 8.47916,-9.58599 4.43241,-14.7043 -5.6346,-7.12667 -16.72559,-3.38264 -16.65584,5.62259 0.0526,6.78676 5.61188,10.91718 12.22343,9.08171 z"
         id="path769" />
      <path
         style="fill:#2c82bf;stroke-width:0.352778"
         d="M 21.507357,264.4737 C 11.989486,263.33021 9.8032201,259.75252 7.8408973,242.10942 6.0032143,225.58697 2.2004039,220.45373 -9.7970638,218.30075 -17.057467,216.99784 -24.140229,213.97353 -33.967644,207.98 c -6.873917,-4.19226 -8.465926,-3.99435 -15.714775,1.95356 -20.529465,16.84508 -22.77921,18.20522 -27.53843,16.6491 -3.606383,-1.17918 -28.161111,-26.16683 -29.178361,-29.69281 -1.06394,-3.68782 -0.98898,-3.80679 14.740627,-23.39571 9.054741,-11.27636 8.97514,-10.88733 4.014238,-19.61836 -5.350147,-9.41609 -9.001147,-18.06655 -11.55524,-27.37829 -3.166605,-11.5448 -2.273595,-10.95519 -19.629315,-12.96043 -6.68103,-0.77191 -13.25858,-1.49818 -14.61677,-1.61394 -10.74924,-0.91611 -10.58334,-0.51303 -10.58334,-25.713243 0,-25.833421 -1.06973,-24.055732 15.52222,-25.79487 22.40604,-2.348562 24.27197,-2.735502 26.23075,-5.43952 1.01015,-1.394467 1.33529,-2.315457 3.056512,-8.657749 2.243999,-8.2686 6.789981,-19.086035 11.345902,-26.998241 4.026037,-6.991965 4.341583,-8.210794 2.882773,-11.1350471 -0.410757,-0.8233834 -11.872934,-15.3386803 -18.602677,-23.5577749 -4.55748,-5.5661 -3.88531,-9.690789 2.56425,-15.735087 4.068744,-3.813083 12.527434,-12.245644 17.574054,-17.519771 7.361668,-7.693537 9.862217,-7.48247 21.473961,1.812579 22.329592,17.874553 19.28272,16.815585 30.311979,10.535205 7.530271,-4.287954 16.697519,-8.097217 25.3477783,-10.532753 2.4540704,-0.690961 5.2699355,-1.490204 6.25747695,-1.776098 4.34273325,-1.25723 5.56238475,-3.312355 6.33291845,-10.671044 0.2991415,-2.85681 0.8598959,-7.654825 1.2461276,-10.662256 2.4681709,-19.218738 2.1855853,-17.602192 3.3990987,-19.444738 1.675917,-2.544637 1.191863,-2.492504 23.266523,-2.505813 24.920272,-0.01502 24.059282,-0.325696 25.147888,9.074161 0.179761,1.552222 0.734628,5.997223 1.233032,9.877779 0.498404,3.880555 1.212889,9.780783 1.587747,13.111615 0.739531,6.571164 1.247524,8.125863 3.188853,9.759383 1.122677,0.944672 1.712557,1.151967 9.355057,3.287571 2.522361,0.704847 6.808611,2.112339 9.525,3.127764 6.995922,2.615173 12.398735,5.231684 21.100416,10.21866 4.75449,2.724803 4.92174,2.649711 19.015,-8.53627 16.04621,-12.73603 16.58917,-13.04954 20.68605,-11.944041 2.37451,0.64074 1.14624,-0.466037 16.30411,14.691534 13.87091,13.870631 14.08942,14.147071 13.78152,17.436566 -0.26371,2.817188 -1.40826,4.424334 -9.04445,12.7000009 -15.27013,16.5488211 -16.09228,20.3944731 -7.42005,34.7064221 4.68098,7.725104 5.76485,10.129676 6.89018,15.285848 2.94036,13.4722 8.91289,18.029613 24.87333,18.979922 21.56965,1.284288 22.39473,2.252755 22.38728,26.277816 -0.007,23.93679 -1.11894,25.41023 -20.09422,26.63581 -18.61901,1.20257 -24.47809,5.28334 -27.19356,18.93999 -1.03163,5.1882 -3.91865,11.04504 -5.44445,11.04504 -0.21467,0 -2.99985,-2.50911 -6.18931,-5.57579 -3.1895,-3.06668 -9.37094,-8.95144 -13.73657,-13.07725 -9.93778,-9.39189 -10.1068,-9.68718 -9.02324,-15.76501 C 139.56287,60.973525 118.27662,16.260215 78.117628,-2.9303053 19.007623,-31.176829 -49.457809,2.8382963 -63.372151,67.364917 -77.874909,134.62027 -16.949168,196.24893 51.939047,184.0065 c 10.767378,-1.91352 11.830343,-1.48741 22.577778,9.05061 4.365625,4.28057 9.879386,9.63565 12.252801,11.90019 5.807848,5.54143 6.610117,7.5604 3.54202,8.91379 -7.34543,3.24018 -8.021638,3.47513 -11.737877,4.0785 -13.110322,2.12858 -16.395661,7.13754 -18.160072,27.68761 -1.243912,14.48781 -2.126636,16.63654 -7.561527,18.40636 -2.105561,0.68566 -26.4388,1.0196 -31.344813,0.43014 z"
         id="path767" />
      <path
         style="fill:#c33b26;stroke-width:0.352778"
         d="m -204.5304,232.27609 c -12.4111,-4.7926 -19.10499,-11.22335 -24.15359,-23.20409 -4.78549,-11.35636 -4.72121,-17.65061 0.52912,-51.80564 6.2344,-40.55677 5.93899,-44.91055 -3.69819,-54.50417 -3.79459,-3.777449 -9.34904,-7.889572 -15.71623,-11.635193 -5.15646,-3.033392 -5.40998,-3.567755 -5.44258,-11.471756 -0.0418,-10.133377 1.67905,-13.140631 9.29248,-16.238938 5.15369,-2.09731 13.78586,-9.731545 16.77982,-14.839972 4.02282,-6.863889 4.00654,-7.616223 -0.86214,-39.8294298 -2.1554,-14.2610429 -4.17244,-27.6754192 -4.48231,-29.8097252 -3.59935,-24.791626 5.47241,-42.826574 27.08023,-53.836302 2.69549,-1.373425 2.69549,-1.373425 25.67333,-1.373425 22.97784,0 22.97784,0 22.97784,18.873613 0,10.380487 -0.0437,18.873613 -0.0971,18.873613 -0.46815,0 -11.19328,1.968909 -14.42946,2.648948 -12.96604,2.724638 -19.1121,8.223904 -19.9121,17.81661 -0.4793,5.747205 2.27451,29.814096 4.84915,42.379113 1.89663,9.256124 2.05038,10.238032 2.28462,14.590058 0.77651,14.427593 -5.92393,28.111537 -18.25486,37.280902 -2.75062,2.045385 -3.34527,0.821362 4.51113,9.285769 10.56703,11.38481 14.64606,20.922645 13.88022,32.455555 -0.24845,3.74155 -3.65342,27.26 -6.23112,43.0389 -4.01007,24.54693 2.79913,32.8946 27.66689,33.91795 5.73264,0.2359 5.73264,0.2359 5.73264,19.40689 0,19.171 0,19.171 -22.48958,19.15482 -22.48959,-0.0162 -22.48959,-0.0162 -25.4882,-1.1741 z m 449.87679,-17.76447 c 0.0913,-18.95473 0.0913,-18.95473 5.73571,-19.53708 13.19883,-1.36176 17.87081,-2.65 22.57778,-6.22561 7.72806,-5.87054 7.69228,-15.2047 -0.21523,-56.17702 -4.21118,-21.81989 2.79749,-41.501481 18.76026,-52.682252 0.75347,-0.527748 0.65331,-0.658714 -5.36342,-7.012313 -10.88362,-11.492975 -14.15073,-17.734154 -14.64211,-27.970718 -0.21336,-4.444458 3.82683,-33.892839 6.6065,-48.1541713 3.24598,-16.6537477 -0.98629,-26.6484757 -13.16799,-31.0968347 -4.65871,-1.701207 -8.24865,-2.34974 -18.52454,-3.346507 -1.85208,-0.179652 -1.85208,-0.179652 -1.85208,-19.380659 0,-19.201006 0,-19.201006 22.90953,-19.201006 22.90953,0 22.90953,0 25.48819,0.926465 25.87195,9.2953 32.05096,31.258612 22.65649,80.532683 -3.6648,19.22208 -4.19298,23.321411 -3.93069,30.5088 0.43646,11.960078 5.07302,18.742245 18.42509,26.951445 9.35729,5.75309 10.85166,7.941572 10.89134,15.950065 0.0378,7.632599 -1.7987,10.977356 -7.65538,13.9424 -8.59794,4.352837 -17.51143,12.923143 -19.99573,19.225853 -2.48493,6.30437 -2.43067,7.14876 2.49382,38.79842 4.77729,30.70341 5.05115,33.03385 4.72606,40.21667 -0.83657,18.48536 -9.91132,32.07849 -27.10899,40.60667 -4.19337,2.07945 -4.19337,2.07945 -26.5496,2.07945 -22.35627,0 -22.35627,0 -22.26501,-18.95475 z"
         id="path765" />
    </g>
  </g>
</svg>
