<?xml version="1.0" encoding="utf-8"?>
<!-- Generator: Adobe Illustrator 26.0.3, SVG Export Plug-In . SVG Version: 6.00 Build 0)  -->
<svg version="1.1" id="Layer_1" xmlns="http://www.w3.org/2000/svg" xmlns:xlink="http://www.w3.org/1999/xlink" x="0px" y="0px"
	 viewBox="0 0 1999.44 1999.44" style="enable-background:new 0 0 1999.44 1999.44;" xml:space="preserve">
<style type="text/css">
	.st0{fill:#976035;}
	.st1{fill:#704424;}
	.st2{fill:#2B1105;}
	.st3{fill:#784826;}
	.st4{fill:#DF810E;}
	.st5{fill:#2C2A28;}
	.st6{fill:#AA5E09;}
	.st7{fill:#3B3B3B;}
	.st8{fill:#835F43;}
	.st9{fill:#800B0B;}
	.st10{fill:#5F0807;}
	.st11{fill:#F7B41F;}
	.st12{fill:#ABA39D;}
	.st13{fill:#696562;}
	.st14{fill:#E7E7E7;}
	.st15{fill:#AEA6A0;}
	.st16{fill:#FFFFFF;}
	.st17{fill:#E9E9E9;}
	.st18{fill:#EDEDED;}
	.st19{fill:#61432D;}
	.st20{fill:#A55B09;}
	.st21{fill:#FFA0A0;}
	.st22{fill:#F2F2F2;}
	.st23{fill:#A7844C;}
	.st24{fill:#7C5D34;}
	.st25{fill:#FFC323;}
</style>
<g>
	<path class="st0" d="M309.66,1889.63c0,0,284.27,43.29,611.83,40.4s473.3-11.54,473.3-11.54v-34.63l28.86-34.63l43.29-695.52
		l-1197.69,8.66L309.66,1889.63z"/>
	<path class="st1" d="M284.84,1305.05c0,0,48.66-3.28,78.19-4.37s54.13-5.47,54.13-5.47l17.5,281.6c0,0,6.01,104.44,20.78,121.39
		s12.03,17.5,13.12,25.15c1.09,7.66,0,15.31,6.56,13.12c6.56-2.19,1.64-18.04,1.09-24.06s3.83-13.67-1.64-39.92
		c-5.47-26.25,0-158.02-2.73-187.55c-2.73-29.53-14.76-195.2-14.76-195.2s91.86-15.86,135.06-20.23
		c43.2-4.37,122.48-16.4,122.48-16.4s21.87,275.58,24.61,309.48s-1.64,74.36,10.39,106.62c12.03,32.26,6.56,57.41,9.84,61.79
		c3.28,4.37,6.01-21.32,9.84-44.84c3.83-23.51,7.11-72.72,6.56-109.36c-0.55-36.64-18.59-329.72-18.59-329.72
		s153.65-15.31,196.3-16.4c42.65-1.09,68.9-2.19,68.9-2.19s-6.01,267.38-4.92,308.39c1.09,41.01,12.58,147.63,15.31,149.82
		c2.73,2.19,10.39-3.28,10.39-1.09s1.09,27.89,3.83,25.15c2.73-2.73,2.73-20.78,2.73-20.78s16.4-36.09,16.95-63.43
		s-9.3-284.88-9.3-284.88l1.64-114.83l242.23,2.19c0,0-12.58,139.98-15.31,192.47c-2.73,52.49-8.75,187-6.01,208.87
		c2.73,21.87,8.75,38.82,11.48,44.84c2.73,6.01,0.55,25.7,5.47,23.51s4.37-19.14,4.37-19.14s18.04-9.3,21.87-51.95
		c3.83-42.65,17.5-259.73,17.5-259.73l8.75-138.34l104.44,6.01l1.64-67.26L684,1162.33l-423.22,7.66L284.84,1305.05z"/>
	<g>
		<path d="M1423.07,1902.52c1.49-3.62,0.3-10.1,0.7-13.69c1.38-12.15,5.37-23.8,7.49-35.81c10.43-47.02,12.99-95.27,16.42-143.14
			c11.34,0.85,21.32,6.61,31.93,10.21c28.86,10.45,57.81,21.58,88.34,26c37.37,11.4,76.39,17.04,115.47,16.85
			c49.17,1.86,99.47-5.91,144.15-27.28c29.89-15.36,57.45-35.66,80.74-59.94c33.48-35.2,53.61-81.46,61.79-129.03
			c2.77-28.95,2.71-58.73-6.02-86.73c-7.33-23.44-14.48-48.18-31.05-66.98c-19.61-22.86-49.84-34.1-79.28-35.93
			c-44.79-3.93-90.14,11.03-126.51,36.88c-29.62,22.95-58.6,46.72-86.18,72.1c-17.91,16.91-37.07,32.58-57.69,46.08
			c-27.1,17.4-56.11,33.37-88.43,37.73c-12.23,1.43-24.12-2.44-35.73-5.61c3.65-68.78,10.52-137.38,13.26-206.19
			c2.25-54.15,6.99-108.25,6.81-162.49c36.64-2.1,73.38-0.55,110.03-3.11c18.85,0.73,37.74-0.24,56.62-0.4
			c12.32-12.68,0.97-32.79,10.52-47.27c3.22-5.7,6.39-11.61,7.57-18.1c3.68-18.29,8.61-36.48,8.85-55.25
			c6.72-25.66,10.43-51.96,17.18-77.59c2.25-15.36,4.14-30.78,8.45-45.74c-13.53-4.94-28.28-4.21-42.42-5.91
			c-32.24-4.3-64.9-2.77-97.34-2.13c-10.22,2.77-20.89,1.8-31.32,2.16c1.46-35.35-3.44-70.46-7.75-105.41
			c-7.36-44.92-37.01-81.09-62.89-116.84c-10.28-15.82-22.17-30.69-37.22-42.18c-6.84-12.86-11.13-28.28-23.99-36.91
			c-0.24-41.35,1.22-82.74-0.3-124.09c-0.43-4.08-0.36-9.26-3.92-11.98c-20.44-14.9-45.49-20.85-69.82-26.03
			c-19.74-5.3-40.26-4.51-60.43-5.73c-42.45-4.21-84.85,5.24-125.08,18.07c-22.29,6.61-43.4,17.07-62.37,30.44
			c-4.17,3.57-10.4,7.04-9.88,13.38c-0.3,11.22,0.76,22.4,1.22,33.58c-14.17-6.46-28.83-12.56-44.58-13.1
			c3.28-8.41,5.96-17.04,7.79-25.87c3.01-15.51,4.8-31.21,6.14-46.93c1.34-1.04,4.01-3.11,5.35-4.14c9.18-7.28,18.12-14.9,26-23.62
			c12.56-16.12,20.34-35.23,27.95-54.06c13.93-36.75,22.59-75.91,21.93-115.35c-1.76-35.81-4.38-71.74-12.44-106.75
			c-7.6-31.76-18.22-65.46-44.16-87.07c-43.24-0.79-86.97-2.13-129.7,5.76c-48.9,10.64-93.73,35.99-131.28,68.69
			c-8.73,7.5-17,16.06-20.86,27.15c-48.93-9.78-99.5-10.3-148.65-1.8c-5.96-15.39-19.89-25.26-32.17-35.35
			c0,0-78.84-82.41-249.34-64.15c-14.87,13.17-26.27,30.54-32.57,49.43c-16.6,45.01-21.44,93.35-22.93,141.01
			c-2.31,50.56,11.89,100.57,33.21,146.01c8.55,18.35,21.14,35.08,38.17,46.29c-0.21,36.36,8.15,72.56,22.96,105.69
			c1.4,2.93,2.8,6,5.26,8.23c-8.21-2.99-15.21,3.5-21.87,7.22c-19.55,11.21-35.31,27.61-50.15,44.28
			c-11.56,12.37-17.15,28.83-22.47,44.59c-9.28,27.73-1.82,57.08,3.92,84.69c3.25,16.3,13.05,30.11,17.91,45.8
			c-26.76,10.91-52,26.42-71.92,47.6c-16.12,15.42-32.17,31.51-42.85,51.35c-6.17,10.3-8.27,22.25-12.26,33.43
			c-19.55-0.3-39.11,0.64-58.66,1.16c-35.06,2.1-69.88,8.01-104.98,9.63c3.01,13.17,6.39,26.3,5.93,39.92
			c7.21,52.9,21.44,104.47,35.52,155.88c4,11.22,6.61,23.61,13.3,33.56c1.87,2.79,5.49,3.87,8.58,2.56l2.57-1.08
			c23.84,6.37,48.87,2.16,73.14,6.1c5.32,52.39,17.21,104.26,36.8,153.2c14.72,40.5,33.15,80.36,60.85,113.67
			c2.98,20.69,13.23,168.41,16.3,225.33c6.63,75.64,6.99,152.53,26,226.46c-0.15,8.78,0.36,17.55,0.18,26.36c0,0,1.91,4.15,8,4.15
			s5.65-4.35,5.65-4.35l-1.74-21.31c0,0,6.52-20.44,6.96-52.63c0.43-32.19-29.14-407.58-29.14-407.58l-14.35-260.12
			c0,0,20.01,6.09,44.37,3.91c24.36-2.17,95.7-3.04,108.31-3.91c12.61-0.87,422.8-0.44,422.8-0.44l340.59,5.65
			c0,0,130.93,1.74,166.16,0.43s83.08-4.78,83.08-4.78s-42.19,641.6-40.89,664.65s5.22,32.62,5.22,40.02
			c0,5.25-1.18,11.41,0.66,16.46c1.37,3.75,5.76,6.85,9.29,3.82C1422.39,1903.82,1422.78,1903.23,1423.07,1902.52z M1394.98,655.41
			c13.65,33.43,9.24,72.65-7.88,104.04C1386.59,724.59,1392.52,690.09,1394.98,655.41z"/>
	</g>
	<path class="st2" d="M449.93,1465.74c-7.42-95.53-14.01-203.17-18.69-298.88c-3.66-0.17-7.31-0.34-10.97-0.52
		c0.84,0.04,2.94,87.61,3.19,94.53c1,27.79,2.16,55.58,3.64,83.35c2.96,55.47,7.2,110.89,14.01,166.03
		c2.01,16.25,4.24,32.48,6.73,48.66c1.26,8.23,2.6,16.46,4,24.67c0.7,4.11,1.38,8.22,2.16,12.31c0.96,5.1,2.35,4.07,7.27,3.97
		C457.18,1555.19,453.4,1510.48,449.93,1465.74z"/>
	<path class="st2" d="M1039.85,1645.45c0.29-22.94,0.26-45.89,0.07-68.84c-0.21-25.68-0.63-51.37-1.05-77.05
		c-0.86-52.73-1.72-105.46-2.58-158.18c-0.8-48.94-1.6-97.9-4.54-146.77c-0.32-5.27-3.74-12.54-8.49-10.23
		c-2.66,1.3-3.08,4.84-3.13,7.8c-1.13,56.2-1.37,112.42-0.8,168.62c0.57,56.49,1.99,112.97,4.25,169.42s5.36,112.86,9.31,169.22
		c0.2,2.84-0.45,17.15,2.22,18.13c4.49,1.65,3.19-11.58,3.29-14c0.56-14.1,0.96-28.2,1.23-42.3
		C1039.7,1656,1039.78,1650.73,1039.85,1645.45z"/>
	<path class="st2" d="M1294.95,1591.57c4.04-35.86,4.56-69.41,7.99-105.34c4.18-43.88,9.08-89.78,13.26-133.66
		c2.23-23.36,6.65-47.08,8.88-70.44c2.16-22.62,4.32-45.28,4.29-68.01c0-3.17-0.58-7.11-3.59-8.11c-4.24-1.41-6.99,4.42-7.64,8.84
		c-20.3,137.98-32.14,277.2-35.44,416.62l1.09,40.54C1283.8,1672.02,1293.21,1607.03,1294.95,1591.57z"/>
	<path class="st2" d="M1061.33,1235.12c-1.34-5.3-2.95-10.53-5.23-15.43c-6.42,1.8-6.54,9.65-7.33,15.13
		c-2.8,42.52-1.31,85.13-1.76,127.7c0.4,78.16-1.85,156.83,9.67,234.38c1.16,11.11,1.03,22.28,1.4,33.45
		c1-14.15-0.24-28.4,1.06-42.55c5.81-51.92,1.25-104.36,4.41-156.4C1063.4,1365.95,1062.79,1300.52,1061.33,1235.12z"/>
	<path class="st2" d="M472.1,1602.92c-0.51-20.21-1.61-40.41-2.86-60.59c-0.44-7.02-1-14.03-1.35-21.05
		c-5.01-77.16-10.01-154.34-17.93-231.26c-0.18-1.77-1.73-4.16-3.07-2.99c-3.97,51.59-0.83,103.44,2.92,155.04
		c4.09,56.29,8.89,112.52,14.4,168.69c1.38,14.04,2.67,28.1,4.27,42.11c0.15,1.28,0.07,5.9,2.73,4.14c1.55-1.03,0.79-7.53,0.85-9.31
		c0.22-7.02,0.32-14.05,0.33-21.07C472.41,1618.72,472.3,1610.82,472.1,1602.92z"/>
	<path class="st2" d="M732.98,1487.08c-1.67-39.53-3.92-79.07-4.41-118.66c-3.31-31.32-1.25-62.85-3.13-94.26
		c-2-38.87-0.87-78.53-15.69-115.69c-1.46,31.99-1.6,64.22,0.73,96.21c2.65,97.76,3.34,195.66,13.01,293.05
		c3.37,45.17,11.07,89.96,12.5,135.28c2.34-2.86,3.62-6.36,3.28-10.07c-0.15-28.18-2.31-56.3-3.04-84.46
		C734.38,1554.71,733.35,1520.9,732.98,1487.08z"/>
	<path class="st2" d="M391.83,1264.18c-6.57,9.95-5.53,22.16-4.07,33.45c3.68,23.53,4.65,47.33,6.45,71.03
		c1.37,11.72,1,24.44,7.78,34.66c7.33-35.73,0.88-72.59-3.25-108.35C396.94,1284.6,394.54,1274.35,391.83,1264.18z"/>
	<path class="st2" d="M1267.17,1508.27c8.03-54.33,14.61-108.91,18.29-163.72c0.69-10.32,1.29-20.65,1.77-30.99
		c0.44-9.58,1.84-19.69-0.95-29.03c-0.25-0.82-0.54-1.67-1.16-2.27c-1.38-1.33-3.82-0.77-5.1,0.65c-1.28,1.42-1.7,3.4-2.05,5.28
		c-3.06,16.42-4.63,33.07-6.2,49.69c-2.84,30.05-5.68,60.1-7.78,90.21c-1.98,28.28-3.31,56.6-4.63,84.92
		c-0.05,1.01-0.08,2.1,0.48,2.95c1.07,1.62,3.73,1.31,5.06-0.11c1.33-1.42,1.67-3.47,1.96-5.39
		C1266.95,1509.74,1267.06,1509.01,1267.17,1508.27z"/>
	<path class="st2" d="M999.73,1336.13c-0.49,0-1.46,0-1.95,0c-2.52,35.12-0.46,70.3-0.06,105.46c-0.15,20.06,4.1,39.93,2.55,60.05
		c0.91,0,2.71,0,3.59,0c-0.21-7.94-0.36-15.89,0.7-23.77c4.04-27.12,2.28-54.66,1.95-81.96
		C1006.57,1375.75,1002.04,1356.03,999.73,1336.13z"/>
	<path class="st2" d="M693.97,1354.33c-6.84,26.48-7.05,53.9-8.73,81.02c-0.21,36.55-1.58,73.38,4.01,109.66
		c1.37,7.61,1.4,15.4,1.09,23.13c0.64,0,1.98,0.06,2.61,0.06c-0.73-11.75-0.49-23.56,1.06-35.24c2.71-20.18,2.4-40.57,2.77-60.87
		c-0.21-39.26,1.55-78.55-1.06-117.75C695.31,1354.33,694.4,1354.33,693.97,1354.33z"/>
	<path class="st2" d="M1280.1,1701.25c-2.92,23.22-9.36,45.86-12.34,69.09c-2.4,19.51-6.2,38.77-8.82,58.25
		c-1.12,10.96-2.74,21.88-3.95,32.84c-0.15,5.27,0,10.59,0.18,15.92c0.49-1,1.46-2.95,1.98-3.93
		c4.86-34.79,11.31-69.36,16.48-104.09c1.82-31.47,12.1-62.3,9.06-93.98C1281.96,1684,1281.02,1692.61,1280.1,1701.25z"/>
	<path class="st2" d="M765.85,1728.13c-1.49-16.65,0.27-33.54-3.25-49.97c-3.59-47.36-5.32-94.86-7.9-142.31
		c-2.37-77.09-1.85-154.24,0.15-231.33c0.97-29.52,4.62-60.96-6.54-88.99c-5.05,20.18-6.54,40.96-7.02,61.69
		c-5.44,96.78-6.96,193.93-0.21,290.68c1.89,40.69,7.36,81.14,14.11,121.31c1.16,6.3,2.55,12.51,3.8,18.84
		c-1.92,17.26-3.56,34.63-2.22,52.01c0,0,2.01,30.91,4.39,45.54c2.38,14.62,1.7,22.79,2.72,26.87s3.74,4.08,3.74,4.08l-0.34,31.97
		l4.42-1.02l-0.34-41.83l-4.76-5.44C766.59,1820.21,766.82,1748.3,765.85,1728.13z"/>
	<path class="st3" d="M1274.71,1793.35c-2.04,6.12-9.52,82.65-9.52,82.65l5.1,0.34c0,0,1.02-23.81,3.06-35.37
		S1274.71,1793.35,1274.71,1793.35z"/>
	<polygon class="st2" points="1280.15,1855.59 1275.73,1855.24 1275.73,1876.33 1280.49,1876.33 	"/>
	<polygon class="st2" points="1043.78,1760.35 1039.36,1764.78 1039.36,1874.97 1043.78,1871.57 	"/>
	<polygon class="st2" points="1050.58,1832.12 1047.52,1828.72 1047.52,1871.91 1051.6,1870.55 	"/>
	<polygon class="st2" points="1055,1850.48 1055,1865.45 1059.76,1863.41 1059.76,1854.9 	"/>
	<polygon class="st2" points="1030.17,1843 1026.77,1844.02 1028.81,1861.03 1031.19,1860.69 	"/>
	<polygon class="st2" points="759.45,1818.17 755.03,1818.17 757.07,1865.79 760.81,1866.47 	"/>
	<path class="st2" d="M777.47,1840.28l-4.76,1.7c0,0,2.04,8.5,3.06,13.6c1.02,5.1,1.02,11.9,1.02,11.9l3.4-2.72L777.47,1840.28z"/>
	<g>
		<path class="st2" d="M470.26,1827.73l0.2,0.22c1,1.17,5.35,6.75,6.19,15.53c0.27,2.81,0.37,5.82,0.37,8.7
			c0,3.84-0.18,7.47-0.36,10.13c-0.18,2.66-0.35,4.33-0.35,4.33c-0.09,0.85,0.52,1.6,1.37,1.69c0.85,0.09,1.6-0.52,1.69-1.37
			c0-0.03,0.73-6.91,0.73-14.78c0-2.95-0.1-6.05-0.39-8.99c-1.08-11.06-7.09-17.44-7.22-17.57c-0.58-0.62-1.56-0.65-2.18-0.06
			C469.7,1826.14,469.67,1827.11,470.26,1827.73L470.26,1827.73z"/>
		<path class="st2" d="M485.16,1867.13c0-0.03-0.33-24.84-2.4-39.31c-0.12-0.84-0.9-1.43-1.74-1.31c-0.84,0.12-1.43,0.9-1.31,1.74
			c1.01,7.04,1.6,16.79,1.94,24.76c0.34,7.97,0.42,14.14,0.42,14.16c0.01,0.85,0.71,1.53,1.56,1.52
			C484.49,1868.68,485.17,1867.98,485.16,1867.13L485.16,1867.13z"/>
		<path class="st2" d="M486.19,1840.56c0,0.01,0.42,2.26,0.88,5.51c0.46,3.24,0.97,7.46,1.13,11.29c0.35,8.07,2.47,11.74,2.6,11.95
			c0.44,0.73,1.38,0.97,2.11,0.53c0.73-0.44,0.97-1.38,0.53-2.11l0,0c-0.11-0.2-1.85-3.4-2.16-10.5
			c-0.35-7.98-2.06-17.18-2.06-17.22c-0.15-0.84-0.96-1.39-1.79-1.23C486.58,1838.92,486.03,1839.72,486.19,1840.56L486.19,1840.56z
			"/>
	</g>
	<path class="st2" d="M1310.08,1462.42c0.34-1.36,8.84-108.15,8.84-108.15s0-2.38,6.12-1.7s3.06,37.75,1.02,48.98
		c-2.04,11.22-5.78,32.31-7.48,41.15c-1.7,8.84-0.34,18.71-4.42,20.75S1310.08,1462.42,1310.08,1462.42z"/>
	<path class="st1" d="M91.66,1150.1l1535.06-2.02l7.42-17.54c0,0,23.62-153.84,41.16-184.88c0,0-429.14,9.45-483.8,12.15
		c-54.65,2.7-186.23-7.42-186.23-7.42s-556.67,6.07-606.6,7.42s-224.02-9.45-255.73-9.45s-102.56,2.02-102.56,2.02L91.66,1150.1z"/>
	<ellipse class="st4" cx="697.39" cy="455.65" rx="322.62" ry="275"/>
	<path class="st5" d="M320.4,929.45l-104.59-2.02c0,0,32.39-103.91,170.04-122.8c0,0,109.31-26.32,199.73,45.21l3.27-4.04
		c0,0-14.69-22.82-45.02-33.76c-30.32-10.94-89.72-23.76-89.72-23.76s35.32-36.89,46.58-46.58c11.25-9.69,36.58-32.51,36.58-32.51
		s48.77,23.13,71.59,25.32c22.82,2.19,45.64,7.82,59.08,13.44c13.44,5.63,71.27,53.77,71.27,53.77s30.32-31.57,88.78-72.84
		c58.46-41.26,238.21-104.72,238.21-104.72s14.07,112.54,15.01,130.98c0.47,9.22,4.79,54.67,12.27,83.47
		c8.16,31.43,16.74,41.23,16.74,41.23s-54.7-2.04-56.21,44.42l-80.16-3.02c-2.98-0.11-5.97-0.14-8.95-0.08l-370.43,7.48
		c0,0,13.13-36.58-23.13-55.64c-36.26-19.07-56.27,1.25-56.27,1.25s-8.13-22.82-49.7-20.94c-41.58,1.88-43.45,27.82-43.45,27.82
		s-20.94-25.01-56.27-13.13S320.4,929.45,320.4,929.45z"/>
	<path class="st6" d="M960.79,296.96c0,0,23.1,90.54,23.1,131.97c0,137.12-129.17,248.28-288.5,248.28
		c-159.33,0-288.5-111.16-288.5-248.28c0-45.51,35.8-141.99,35.8-141.99c-42.53,46.58-67.92,105.11-67.92,168.71
		c0,151.88,144.44,275,322.62,275c178.18,0,322.62-123.12,322.62-275C1020,396.53,998.04,341.81,960.79,296.96z"/>
	<path class="st5" d="M259.67,1411.9c0,0-65.45-103.91-74.9-235.49h67.47L259.67,1411.9z"/>
	<path class="st7" d="M1425.57,700.18c0,0-2.45,65.24-44.64,107.43c0,0,0.98,47.58-19.13,66.71c0,0,53.47-2.94,74.07,8.83
		c20.6,11.77,11.77,42.19,11.77,42.19l53.96-0.98c0,0,2.93-65.62-10.3-112.33C1474.63,753.16,1425.57,700.18,1425.57,700.18z"/>
	<path class="st8" d="M1067.98,924.85c0,0,148.63,4.41,182.48,4.41s174.63-3.92,174.63-3.92l1.47-18.15c0,0,0-10.79-8.34-11.28
		s-77.99,1.96-101.05,1.96s-122.14,0-143.73-0.49s-71.62,2.45-88.3,3.92C1068.47,902.77,1067.98,924.85,1067.98,924.85z"/>
	<path class="st9" d="M945.83,652.11c-3.08,2.49,120.18-45.13,120.18-45.13l-2.45-41.2c0,0-16.68-7.85-23.06-9.81
		c-6.38-1.96-25.02-5.4-25.02-5.4S994.4,612.87,945.83,652.11z"/>
	<path class="st10" d="M524.46,704.6c0,0-62.3,45.62-84.86,77.5c0,0-69.17-5.89-104.48,6.87c0,0-25.02-39.73-27.47-93.69
		c-2.45-53.96,51.02-101.05,92.71-105.46C400.36,589.81,428.81,656.52,524.46,704.6z"/>
	<path class="st4" d="M361.61,443.14c0,0,0-123.12,116.75-207.01c0,0,0.49-17.66-11.28-32.87s-72.6-60.83-123.61-76.52
		c0,0,16.68-1.96,72.6,26.49c0,0,54.94,38.75,61.81,53.47c6.87,14.72,5.89,26.49,5.89,26.49s34.34-38.75,132.93-56.9
		c0,0-75.54-58.86-129.99-74.07S341.99,87.51,341.99,87.51s-27.74,56.12-36.22,133.47c-4.46,40.68-1.28,81.83,9.27,121.36
		C323.43,373.76,337.71,411.98,361.61,443.14z"/>
	<path class="st4" d="M1035.09,451.31c0,0,3.02-125.91-112.53-211.48c0,0-0.06-18.06,12.17-33.63s74.63-62.34,126.41-78.49
		c0,0-16.75-1.98-73.79,27.22c0,0-56.3,39.73-63.58,54.79c-7.28,15.06-6.58,27.1-6.58,27.1s-33.64-39.57-132.52-57.95
		c0,0,77.55-60.34,132.77-75.99c55.23-15.65,146.14-15.32,146.14-15.32s26.57,57.34,33.21,136.43
		c3.49,41.59-0.72,83.68-12.32,124.13C1075.25,380.29,1059.93,419.39,1035.09,451.31z"/>
	<g>
		<path class="st11" d="M698.77,258.72c0-1.25,0.18-9.29,0.18-9.29s5.36-6.97,5.18-13.58c-0.18-6.61-5.9-7.86-5.9-7.86
			s7.68-3.93,7.33-9.47c-0.23-3.51-2.82-6.44-4.69-8.12c-1.23-0.86-1.93-1.53-1.93-1.53s0.85,0.56,1.93,1.53
			c1.82,1.27,4.85,2.94,8.8,3.47c6.61,0.89,8.76,0.36,8.76,0.36s0.71,7.33,7.33,7.51c0,0-3.93,5.9-3.75,10.01
			c0.18,4.11,3.57,5.54,3.57,5.54s-2.86,3.57-1.07,11.08c1.79,7.51-2.5,10.54,1.43,16.26c3.93,5.72,14.83-0.18,20.55-2.14
			c5.72-1.97,6.79-6.26,7.15-10.72c0.36-4.47,0.18-12.51,0.18-12.51s6.61-1.07,6.43-7.69c-0.18-6.61-3.04-7.15-3.04-7.15
			s8.04-3.04,7.33-9.11c-0.71-6.08-3.75-7.86-3.75-7.86s-1.25-3.22,17.34-2.68c18.59,0.54,23.77-0.18,27.17,0.36
			c3.4,0.54,3.04,2.86,8.58,2.14c3.39-0.44,6.77-3.07,8.89-5.06c-38.54-13.87-80.9-21.54-125.37-21.54
			c-33.03,0-64.89,4.24-94.89,12.1c-4.73,2.9-13.38,8.7-11.32,15.04c2.68,8.22,25.38,3.4,25.38,3.4s-7.15,5.72-3.22,14.3
			s19.3,4.65,19.3,4.65s-5.18,7.86-3.75,11.97c1.43,4.11,8.22,3.4,8.22,3.4s-2.86,0.89-2.14,5.72c0.71,4.83,7.51,4.47,7.51,4.47
			s-6.79,3.04-5.18,10.9c1.61,7.86,7.51,4.83,11.62,1.07c4.11-3.75,5.72-11.62,5.72-11.62s-0.71-6.08-0.89-8.22
			c-0.18-2.14-3.57-3.04-3.57-3.04s4.47-3.75,3.93-6.79c-0.54-3.04-6.79-6.79-6.79-6.79s11.26-2.68,11.08-8.4
			c-0.18-5.72-2.68-8.22-2.68-8.22l14.83,0.18c0,0-4.11,5.36,1.43,6.97s12.87-0.54,12.87-0.54s-11.26,8.04-9.65,12.69
			c1.61,4.65,6.61,6.08,6.61,6.08s-7.51,5-5.36,11.97c2.15,6.97,6.61,6.79,6.61,6.79s0.71,12.33,9.11,11.44
			C700.56,269.27,698.77,259.98,698.77,258.72z"/>
		<path class="st11" d="M1009.91,387.14c-3.49-0.6-6.88-0.87-9.04-0.23c-6.14,1.81-5.78,13.91-5.78,13.91s-6.14-0.54-8.67,0.9
			c-2.53,1.44-4.33,8.13-4.33,8.13s-0.72-0.9-4.88-1.26c-4.15-0.36-6.5,6.86-6.5,7.58c0,0.72-2.71-3.79-6.5-5.06
			c-3.79-1.26-8.85,4.51-8.85,4.51s-2.89-5.06-7.77-4.88c-4.88,0.18-9.39,6.86-10.11,19.32c-0.72,12.46,17.7,10.84,17.7,10.84
			s-1.44,10.29,7.04,10.84c8.49,0.54,11.92-12.28,11.92-12.28s0.9,20.77,6.68,21.67c5.78,0.9,8.85-2.71,8.85-2.71
			s2.17,4.88,7.4,3.97c5.24-0.9,6.86-19.32,6.86-19.32l3.07-8.13c0,0,0.54,30.16,2.53,35.76c1.99,5.6,4.88,7.95,4.88,7.95
			s-3.07,12.1-4.15,16.98c-1.08,4.88-4.15,5.42-4.15,5.42s-3.61-7.22-11.2-9.03c-7.59-1.81-9.21,10.29-9.21,10.29
			s-2.35-6.86-7.22-8.49c-4.88-1.63-14.09,10.29-14.09,10.29s-2.17-17.34-11.2-19.86c-9.03-2.53-28.89,6.86-30.7,13
			c-1.81,6.14-0.36,11.02,10.65,9.93c11.02-1.08,15.89-9.93,15.89-9.93l-1.08,13.36c0,0-3.79,9.75,3.79,14.09
			c7.58,4.33,11.38,2.17,11.38,2.17s-7.95,20.41-3.97,25.28c3.97,4.88,10.66-0.72,10.66-0.72s1.63,8.67,6.5,8.67
			s10.84-3.79,10.84-3.79s-15.71,19.86-18.96,27.99c-2.22,5.55,0.53,13.12,2.67,17.3c31.13-42.3,49.15-92.32,49.15-145.94
			C1020,432,1016.5,409.04,1009.91,387.14z"/>
		<path class="st11" d="M460.45,526.81c3.83-7.66,3.61-14.2-0.9-14.65c-4.51-0.45-9.02,4.96-9.02,4.96s-2.25-11.05-10.14-8.79
			c-7.89,2.25-8.12,11.05-8.12,11.05s-7.21-4.28-10.6-3.16c-3.38,1.13-3.83,10.37-3.83,10.37s-1.8-8.12-5.19-8.12
			c-3.38,0-4.28,0-4.28,0s-4.06-4.96-8.34-3.83c-4.28,1.13-6.54,24.12-6.54,24.12s-1.47,1.39-2.78,2.47
			c6.49,16.9,14.84,33.08,24.86,48.37c1.92-4.64,3.84-11.61,3.84-11.61s2.93,1.58,6.31-3.61c3.38-5.19-2.48-14.65-2.48-14.65
			s4.06,2.25,7.21,0c3.16-2.25,0.68-10.37,0.68-10.37s3.16,2.48,10.6-0.68c7.44-3.16,3.61-19.16,3.61-19.16
			S456.62,534.48,460.45,526.81z"/>
		<path class="st11" d="M392.14,476.54c0,0-0.23,10.14,7.66,10.82c7.89,0.68,10.14-12.17,10.14-12.17s0.9,5.19,6.54,4.51
			c5.64-0.68,11.27-19.61,11.27-19.61s1.13,8.12,11.95,6.09c10.82-2.03,11.95-13.3,11.95-13.3s5.19,3.61,9.69-1.8
			c4.51-5.41,12.85-16.23,12.85-16.23s6.76,1.13,9.24-4.28c2.48-5.41-2.25-11.5-16.01-11.95c-13.75-0.45-13.75,5.18-13.75,5.18
			s-1.35-4.28-5.86-5.41c-4.51-1.13-8.57,1.35-8.57,1.35s0.45-12.17-7.44-12.17c-7.89,0-14.43,10.6-14.43,10.6s-2.25-4.28-5.19-4.28
			c-2.93,0-5.64,1.13-5.64,1.13s0.23-5.19-3.38-5.64c-3.61-0.45-9.02,0.9-9.02,0.9s-0.23-7.66-7.66-7.66c-1.73,0-3.69-0.1-5.66-0.25
			c-3.97,17.25-6.08,35.07-6.08,53.3c0,13.91,1.22,27.58,3.56,40.94c2.77-1.01,5.47-2.24,7.28-3.37
			C391.02,489.84,392.14,476.54,392.14,476.54z M438.81,434.39l22.77,0.9l-19.84,10.6l-7.89-9.02L438.81,434.39z"/>
	</g>
	<path class="st12" d="M331.1,930.97h59.06c0,0-1.42-20.63,12.1-20.28c13.52,0.36,12.81,19.92,12.81,19.92h47.32
		c0,0,5.34-20.99,18.86-19.21c13.52,1.78,8.18,18.5,8.18,18.5h49.81c0,0,4.63-15.65,14.59-16.01c9.96-0.36,7.83,15.65,7.83,15.65
		h17.43c0,0,2.13-14.94,1.42-24.19c-0.48-6.29-17.43-26.68-33.09-28.82s-36.29,10.32-36.29,10.32s-10.67-20.99-40.91-21.7
		s-44.83,25.26-44.83,25.26s-12.1-5.69-18.5-9.61c-6.4-3.91-6.76-6.4-25.26-4.62S343.2,892.9,331.1,930.97z"/>
	<g>
		<path class="st0" d="M405.82,930.62h-6.76c0,0-2.85-8.18,2.49-8.54C406.88,921.72,405.82,930.62,405.82,930.62z"/>
		<path class="st0" d="M480.53,929.55h-9.61c0,0,5.34-7.83,7.12-8.18S480.53,929.55,480.53,929.55z"/>
		<path class="st0" d="M553.82,928.84h-4.98c0,0-0.36-5.69,3.2-6.05S553.82,928.84,553.82,928.84z"/>
	</g>
	<path class="st13" d="M690.83,745.11l52.13,39.23c0,0,26.87-38.15,54.28-51.05C797.23,733.29,735.43,745.65,690.83,745.11z"/>
	<path class="st0" d="M1191.5,957.79c-54.65,2.7-186.23-7.42-186.23-7.42s-556.67,6.07-606.6,7.42
		c-49.93,1.35-224.02-9.45-255.73-9.45c-25.54,0-76.44,1.31-95.29,1.82c11.07,19.67,31.43,58.09,35.47,81.26
		c0,0,90.91-1.4,124.48-2.1s157.35-16.78,196.51-18.88c39.16-2.1,204.2-4.9,270.64-4.9c53.02,0,131.25,4.01,160.69,5.63
		c7.97,0.44,15.9,0.33,23.86-0.31c36.94-3,136.99-13.08,153.91-12.77c27.01,0.49,67.77,5.4,67.77,5.4s114.77,9.74,177.01,5.55
		s329.38-17.48,329.38-17.48s8.95-25.44,13.78-44.27C1475.82,950.14,1231.81,955.8,1191.5,957.79z"/>
	<path class="st7" d="M385.85,804.62c-137.65,18.89-170.04,122.8-170.04,122.8l104.59,2.02c0,0,9.92-49.58,45.24-61.46
		c3.72-1.25,7.25-2.02,10.64-2.52c3.4-1.61,7.3-2.93,11.43-3.15c12.08-0.62,40.26-2.79,40.26-2.79s7.12-16.72,37.17-14.87
		c23.4,1.45,35.49,11.71,40,17.94c4.22,3.06,6.79,6.22,8.25,8.48c1.21-3.13,2.94-6.71,5.02-8.15c4.03-2.79,8.98-4.65,8.98-4.65
		s-22.3-24.16-32.21-30.35c-7.89-4.93-35.4-20.84-51.6-27.91C409.36,798.98,385.85,804.62,385.85,804.62z"/>
	<g>
		<path class="st7" d="M687.82,873.47c0,0-1.13,36.69-1.77,53.31l242.45-4.89c-7.04-20.46-19.76-56.69-25.42-68.24
			c-8.05-16.41-41.81-93.23-41.81-93.23s-58.85,53.27-85.48,68.14C749.15,843.43,687.82,873.47,687.82,873.47z"/>
	</g>
	<path class="st7" d="M1076.15,706.55c-4.37-37.68-9.96-82.39-9.96-82.39s-55.2,19.5-114.37,43.89
		c-7.46,10.34-21.36,29.11-29.52,36.9c0,0,58.74-27.27,104.11-24.65C1051.19,681.73,1066.93,694.89,1076.15,706.55z"/>
	<path class="st14" d="M1475.01,1702.95c0,0,148.58,65.49,287.31,37.32c138.72-28.17,200.69-152.1,196.47-225.34
		s-33.1-137.32-95.07-143.65c-61.97-6.34-109.15,19.01-128.87,34.51c-19.72,15.49-97.88,85.91-97.88,85.91s-66.19,66.9-138.72,74.64
		c0,0-7.93,12.24-15.76,31.03c-12.53,30.07-15.66,63.27-9.48,95.26L1475.01,1702.95z"/>
	<path class="st12" d="M1958.78,1514.93c-2.99-51.78-18.37-98.87-48.99-124.33c-43.44-16.58-36.61,8.89-31.91,14.06
		c5.12,5.63,17.41,30.2,15.87,34.3c-1.54,4.1-3.58,10.24-4.1,18.43c-0.51,8.19-8.7,34.81-14.33,46.07
		c-5.63,11.26-2.56,12.8-2.56,12.8s-13.31,18.43-18.94,24.57c-5.63,6.14-6.14,14.33-0.51,12.8c5.63-1.54,16.38-11.26,16.38-11.26
		c-6.14,14.33-37.88,37.88-49.15,42.49c-11.26,4.61-11.26,15.87-2.05,14.85c9.21-1.02,41.47-14.33,41.47-14.33
		s-22.01,14.33-37.88,18.94c-15.87,4.61-66.55,17.41-67.58,24.06c-1.02,6.66,20.99,9.21,20.99,9.21
		c-19.97,2.56-84.47-2.05-84.47-2.05s-10.75,1.02-11.77,7.17s7.17,10.75,7.17,10.75l27.13,8.19
		c-132.48-1.27-205.38-56.04-226.42-74.7c-1.52,3.2-3.08,6.63-4.65,10.41c-12.53,30.07-15.66,63.27-9.48,95.26l2,10.32
		c0,0,148.58,65.49,287.31,37.32C1901.04,1712.1,1963.01,1588.17,1958.78,1514.93z"/>
	<path class="st14" d="M695.31,476.73c-23.17-0.14-44.22,0.92-63.54,2.85c-13.41,23.86-37.57,39.84-65.23,39.84
		c-15.52,0-29.93-5.05-41.99-13.66c-71.53,31.89-89.76,81.55-94.37,104.02c58.02,72.94,156.04,120.87,267.2,120.87
		c115.17,0,216.17-51.48,273.26-128.87C963.4,556.61,916.66,478.04,695.31,476.73z"/>
	<path class="st15" d="M722.65,729.74c4.62-0.31,9.21-0.69,13.77-1.16c2.02-0.21,4.03-0.41,6.04-0.65
		c5.11-0.61,10.18-1.33,15.21-2.14c1.17-0.19,2.36-0.34,3.53-0.54c6.24-1.07,12.41-2.29,18.51-3.66c1.25-0.28,2.47-0.61,3.72-0.9
		c4.89-1.15,9.74-2.39,14.53-3.73c1.64-0.46,3.26-0.93,4.89-1.41c4.75-1.4,9.45-2.89,14.09-4.48c1.16-0.4,2.34-0.77,3.5-1.18
		c11.79-4.15,23.22-8.89,34.26-14.16c0.95-0.45,1.89-0.93,2.83-1.39c4.73-2.31,9.4-4.72,13.97-7.23c0.81-0.44,1.62-0.87,2.42-1.32
		c10.87-6.07,21.29-12.67,31.19-19.79c0.07-0.05,0.13-0.1,0.19-0.14c4.84-3.48,9.54-7.1,14.13-10.81c0.4-0.32,0.79-0.64,1.18-0.96
		c14.19-11.61,27.15-24.3,38.67-37.94c0.11-0.13,0.22-0.26,0.33-0.39c3.83-4.55,7.52-9.21,11.02-13.96c0,0,0,0,0,0
		c-2.35-14.64-8.9-32.78-24.14-50.67c-49.56,75.27-143.41,126.1-251.12,126.1c-102.46,0-192.37-46-243.56-115.27
		c-13.74,18.97-19.38,36.73-21.65,47.84c3.33,4.19,6.84,8.28,10.43,12.3c0.97,1.08,1.97,2.14,2.95,3.2c2.73,2.97,5.53,5.89,8.4,8.76
		c1.17,1.17,2.34,2.33,3.53,3.48c2.99,2.89,6.07,5.72,9.2,8.5c1.02,0.9,2,1.82,3.03,2.71c8.39,7.25,17.25,14.09,26.53,20.52
		c1.29,0.89,2.6,1.74,3.9,2.62c3.41,2.29,6.87,4.52,10.4,6.7c1.53,0.94,3.07,1.88,4.62,2.8c3.6,2.14,7.26,4.2,10.96,6.22
		c1.37,0.74,2.71,1.51,4.09,2.24c5.11,2.69,10.3,5.29,15.59,7.73c0.04,0.02,0.09,0.04,0.13,0.06c5.18,2.39,10.46,4.63,15.81,6.79
		c1.62,0.65,3.26,1.26,4.89,1.89c3.88,1.49,7.79,2.93,11.75,4.3c1.88,0.65,3.77,1.29,5.67,1.91c4.01,1.31,8.06,2.54,12.14,3.71
		c1.7,0.49,3.39,1.01,5.11,1.47c5.78,1.57,11.61,3.04,17.52,4.33c0.1,0.02,0.21,0.04,0.31,0.06c5.78,1.26,11.64,2.36,17.54,3.35
		c1.87,0.31,3.76,0.57,5.64,0.86c4.23,0.64,8.49,1.23,12.77,1.73c2.14,0.25,4.29,0.48,6.45,0.7c4.31,0.43,8.65,0.77,13.02,1.05
		c1.95,0.13,3.89,0.28,5.85,0.38c6.27,0.31,12.58,0.51,18.94,0.51c6.53,0,13-0.22,19.44-0.54
		C718.77,730.01,720.71,729.86,722.65,729.74z"/>
	<path d="M622.83,375.97c-14.35-15.56-34.28-25.25-56.29-25.24c-22.02,0-41.95,9.69-56.29,25.24c-14.36,15.56-23.2,37-23.2,60.64
		c0,23.64,8.84,45.08,23.2,60.64c14.35,15.56,34.28,25.25,56.29,25.24c22.02,0,41.95-9.69,56.29-25.24
		c14.36-15.56,23.2-37,23.2-60.64C646.02,412.98,637.18,391.53,622.83,375.97z M618.3,493.08c-13.31,14.41-31.59,23.26-51.77,23.26
		c-20.18,0-38.46-8.85-51.77-23.26c-13.3-14.41-21.57-34.37-21.56-56.47c0-22.1,8.26-42.05,21.56-56.47
		c13.31-14.41,31.58-23.26,51.77-23.26c20.18,0,38.46,8.85,51.77,23.26c13.3,14.41,21.56,34.37,21.56,56.47
		C639.87,458.71,631.6,478.67,618.3,493.08z"/>
	<path class="st16" d="M618.3,493.08c-13.31,14.41-31.59,23.26-51.77,23.26c-20.18,0-38.46-8.85-51.77-23.26
		c-13.3-14.41-21.57-34.37-21.56-56.47c0-22.1,8.26-42.05,21.56-56.47c13.31-14.41,31.58-23.26,51.77-23.26
		c20.18,0,38.46,8.85,51.77,23.26c13.3,14.41,21.56,34.37,21.56,56.47C639.87,458.71,631.6,478.67,618.3,493.08z"/>
	<g>
		<ellipse class="st17" cx="509.26" cy="435.87" rx="9.37" ry="10.28"/>
		<circle class="st17" cx="527.74" cy="454.35" r="7.13"/>
	</g>
	<path d="M586.84,392.81c0,0-30.75-8.76-36.45,40.93c0,0-4.07,41.75,30.95,43.58c35.03,1.83,33.8-44.6,33.8-44.6
		S614.94,394.85,586.84,392.81z"/>
	<g>
		<circle class="st18" cx="596.15" cy="437.9" r="5.8"/>
		<path class="st18" d="M580.12,402.59c0,0-15.68-0.2-18.73,17.11s5.5,24.23,14.87,24.44c9.37,0.2,17.51-12.63,16.9-22.81
			C592.54,411.14,586.84,402.59,580.12,402.59z"/>
	</g>
	<g>
		<path d="M747.03,324.59c0.85,7.99,4.03,15.96,8.42,22.68l-5.53,0.64c5.37-14.99,12.79-28.78,22.02-41.57
			c19.2-26.28,56.04-57.22,90.71-45.51c11.53,5.08,19.08,16.34,21.63,28.31c0.22,0.96-0.38,1.92-1.34,2.15
			c-1.01,0.24-1.96-0.43-2.17-1.41c-3.94-13.78-15.64-25.91-30.57-25.83c-46.02,2.88-78.64,46.23-94.52,86.03
			c-6.63,9.89-13.9-20.96-13.42-25.34C742.2,321.58,746.91,321.48,747.03,324.59z"/>
	</g>
	<g>
		<path d="M452.24,316.82c14.38-33.96,39.19-63.03,70.75-82.07c29.31-17.88,78.94-32.92,100.82,3.34c2.16,2.73-1.92,5.98-4.04,3.17
			c-31.88-46.35-107.19,1.1-133.68,33.19c-11.46,13.37-21.49,28.45-28.53,44.4C456.3,322.37,450.76,320.39,452.24,316.82z"/>
	</g>
	<path class="st19" d="M1191.1,897.59c-7.7-0.06-13.88-0.13-17.66-0.21c-21.58-0.49-71.62,2.45-88.3,3.92
		c-16.68,1.47-17.17,23.55-17.17,23.55s62.41,1.85,115.56,3.16C1183.24,920.01,1184.02,906.68,1191.1,897.59z"/>
	<path d="M967.08,631.81c-6.4,7.12-13.47,14.01-21.25,20.3c-0.88,0.71,8.7-2.72,22.78-7.97
		C968.57,640.47,968.18,636.19,967.08,631.81z"/>
	<path class="st9" d="M393.79,713.52c0-25.04-19.08-84.67-25.64-101.37c-1.67-4.25-2.17-7.68-2.02-10.52
		c-31.79,18-60.29,53.92-58.49,93.64c2.45,53.96,27.47,93.69,27.47,93.69c15.73-5.68,38.16-7.66,58.22-8.11
		C393.51,762.62,393.79,730.74,393.79,713.52z"/>
	<path class="st7" d="M196.28,1251.72c21.61,93.8,63.38,160.18,63.38,160.18l-3.43-108.74
		C226.78,1300.94,207.13,1273.31,196.28,1251.72z"/>
	<path class="st7" d="M196.28,1251.72c21.61,93.8,63.38,160.18,63.38,160.18l-3.43-108.74
		C226.78,1300.94,207.13,1273.31,196.28,1251.72z"/>
	<g>
		<path class="st20" d="M1084.48,348.14c11.61-40.45,15.81-82.54,12.32-124.13c-1.44-17.16-3.85-33.21-6.69-47.96
			c-16.15-31.94-37.29-40.93-43.71-43c-48.26,19.33-100.57,59.02-111.66,73.14c-12.23,15.57-12.17,33.63-12.17,33.63
			c115.55,85.57,112.53,211.48,112.53,211.48C1059.93,419.39,1075.25,380.29,1084.48,348.14z"/>
		<path class="st20" d="M387.11,145.58c-15.49-6.2-40.22-13.98-62.78-12c-7.25,22.92-14.81,53.04-18.57,87.39
			c-4.46,40.68-1.28,81.83,9.28,121.36c8.39,31.42,22.67,69.64,46.57,100.8c0,0,0-123.12,116.75-207.01c0,0,0.49-17.66-11.28-32.87
			C458.58,192.3,424.55,165.55,387.11,145.58z"/>
	</g>
	<g>
		<path class="st2" d="M315.01,1019.85c-1.29-1.51,74.07,0,97.64-0.48c23.57-0.48,50.98-0.48,72.63-0.48s106.29,6.25,129.86,6.25
			s164.01-8.66,164.01-8.66l178.92-14.43c0,0,71.18-1.44,90.42-1.44c19.24,0,108.22,8.18,122.17,8.66
			c13.95,0.48,46.65,2.41,57.24,3.37c10.58,0.96,44.73,3.85,43.29,8.18c-1.44,4.33-126.5,0-151.03-0.96
			c-24.53-0.96-75.51-6.73-113.51-5.77c-38,0.96-164.01,11.54-164.01,11.54s-139.48,12.51-176.52,11.06
			c-37.03-1.44-87.54,0-127.46-5.29c0,0-42.33-2.89-65.41-4.33C450.17,1025.63,317.9,1023.22,315.01,1019.85z"/>
		<path class="st2" d="M87.51,1049.19v11.54c0,0,89.46-2.4,132.27-1.44c0,0,138.04,4.81,166.42,5.29
			c28.38,0.48,158.24,14.91,158.24,14.91s42.81,5.77,76.96,8.18c34.15,2.4,93.79-2.4,92.35-5.29c-1.44-2.89-7.21-3.85-26.93-2.89
			c-19.72,0.96-57.72,0.96-90.42,0.48c-32.71-0.48-41.36-4.33-41.36-4.33s-26.93-14.43-48.58-16.83
			c-21.64-2.4-138.04-12.51-138.04-12.51s-29.7-3.05-70.22-3.37C231.9,1042.42,135.87,1045.01,87.51,1049.19z"/>
		<path class="st2" d="M545.4,1062.18c53.8,3.99,107.14,13.5,161.17,9.81c26.92-2.05,53.67-5.45,80.56-9.12
			c27.25-3.1,54.41-3.04,81.48-3.57c5.56-0.1,5.91,8.51,0.18,8.66c-68.34-4.43-134.68,10.99-202.65,12.65
			C625.36,1077.26,585.54,1069.4,545.4,1062.18z"/>
		<path class="st2" d="M909.01,1085.27c0,0-224.13-0.48-223.17,0.96c0.96,1.44,15.87,6.25,53.39,7.21
			c37.52,0.96,66.86,2.89,77.44,3.37c10.58,0.48,13.95-5.77,13.95-5.77s59.64-0.96,65.89-0.96
			C902.76,1090.08,909.01,1085.27,909.01,1085.27z"/>
		<path class="st2" d="M965.77,1070.84c1.44,0,82.25-0.48,127.94-0.96c45.69-0.48,194.31-0.48,194.31-0.48s35.59,9.14,56.27,8.66
			c20.68-0.48,36.07,3.37,63.49,6.25c27.42,2.89,110.62,12.99,113.99,12.99s16.24-0.58,16.24-0.58s-18.16-11.45-32.59-11.93
			c-14.43-0.48-136.6-16.83-138.52-16.83s140.44-3.37,148.14-1.44c7.7,1.92,8.66,0.96,24.53,1.44c15.87,0.48,77.44-3.85,84.65-2.89
			c7.21,0.96,11.06,3.37,12.02,1.44c0.96-1.92,1.44-10.1-0.48-12.02c-1.92-1.92-22.12-1.92-22.12-1.92l-134.67,1.44l-182.77,3.85
			l-107.74,1.44L965.77,1070.84z"/>
		<path class="st2" d="M1572.57,1083.78c0.05,0,37.3,6.37,58.78,6.38l1.06-0.01c0.85-0.01,1.53-0.7,1.53-1.55
			c-0.01-0.85-0.7-1.53-1.55-1.53l-1.04,0c-10.47,0-25.08-1.58-37.02-3.16c-11.95-1.59-21.22-3.17-21.24-3.17
			c-0.84-0.14-1.63,0.42-1.78,1.26C1571.17,1082.84,1571.73,1083.64,1572.57,1083.78L1572.57,1083.78z"/>
	</g>
	<g>
		<path d="M744.25,499.37c-0.12-0.07-6.4-4.92-14.37-5.3c-0.85-0.04-1.57,0.62-1.6,1.47c-0.04,0.85,0.62,1.57,1.47,1.6
			c3.37,0.14,6.57,1.31,8.9,2.46c1.17,0.57,2.11,1.14,2.77,1.56l0.74,0.5l0.23,0.17c0.68,0.51,1.64,0.38,2.16-0.29
			C745.06,500.85,744.93,499.89,744.25,499.37L744.25,499.37z"/>
		<path d="M743.75,494.27c0,0,2.04,1.35,4.32,2.97c2.26,1.59,4.83,3.58,5.53,4.43c0.55,0.65,1.52,0.72,2.17,0.17
			c0.65-0.55,0.72-1.53,0.17-2.17c-1.22-1.39-3.73-3.24-6.08-4.93c-2.33-1.66-4.4-3.02-4.41-3.03c-0.71-0.47-1.66-0.27-2.13,0.44
			C742.85,492.84,743.04,493.8,743.75,494.27L743.75,494.27z"/>
		<path d="M738.17,504.04c0,0-1.48,3.87-7.74,4.32c-6.26,0.46-16.84,0.46-26.62,1.82c-9.78,1.37-19.79,3.87-22.75,4.89
			c-2.96,1.02-6.71-0.23-6.37-1.59c0.34-1.37,3.53-1.71,7.62-2.96s13.42-7.51,28.44-7.62C725.77,502.79,734.07,503.13,738.17,504.04
			z"/>
		<path d="M752.61,530.66c0,0-3.41-5.57-10.69-5.92c-7.28-0.34-32.88,0.68-44.25,2.16c-11.38,1.48-18.49,4.59-18.49,4.59
			s-7.9,1.21-8.24,4.85s8.65,15.47,18.77,19.45c10.12,3.98,26.14,9.42,30.81,11.13c4.66,1.71,11.17-6.12,13.1-8.29
			c1.93-2.16,23.89-24,27.3-25.6c3.41-1.59,3.07-3.53,0.8-5.23C759.44,526.11,755.57,528.05,752.61,530.66z"/>
	</g>
	<path class="st21" d="M749.37,533.06c-1.78,0.67-26.63,12.46-26.63,23.73c0,0.22-15.38-4.23-19.72-6.02s-20.61-11.03-22.84-13.04
		c0,0,18.27-5.35,36.99-6.46C735.89,530.17,749.37,533.06,749.37,533.06z"/>
	<g>
		<path d="M455.87,340.6l26.5,21.04c9.21,7.46,18.54,13.66,24.54,24.66c0.6,1.37,0.09,2.95-1.11,3.75l-38.02,24.87
			c-1.12,0.73-2.61,0.42-3.34-0.7c-0.72-1.09-0.42-2.56,0.64-3.3l37.27-25.97l-1.11,3.75c-4.55-9.15-14.13-16.49-22-23.26
			l-25.41-21.76C451.66,342.31,453.76,339.03,455.87,340.6z"/>
		<path d="M455.23,383.16l49.02,1.27c4.01,0.12,3.88,6.25-0.16,6.16l-48.86-4.49C453.3,386.14,453.28,383.1,455.23,383.16z"/>
	</g>
	<g>
		<path d="M477.6,515.08l0.02-0.01c0.46-0.18,6.33-2.4,18.37-2.78c11.71-0.36,29.26,1.02,53.35,7.78c1.29,0.36,2.67-0.41,3.07-1.72
			c0.4-1.31-0.32-2.67-1.61-3.03c-24.5-6.87-42.55-8.33-54.8-7.95c-13.43,0.42-19.88,3.06-20.15,3.17c-1.26,0.53-1.89,1.98-1.4,3.23
			C474.92,515.02,476.34,515.61,477.6,515.08L477.6,515.08z"/>
	</g>
	<path d="M962.16,367.1L962.16,367.1c-0.02,0-11.17,0.74-24.44,2.07c-10.6,1.07-22.4,2.48-31.23,4.23
		c3.79-3.17,8.11-6.82,12.27-10.37c4.35-3.7,8.49-7.24,11.58-9.87c1.54-1.31,2.82-2.39,3.72-3.15l1.04-0.86l0.23-0.18l-0.03-0.04
		c1.12-0.75,1.69-2.14,1.24-3.49c-0.54-1.61-2.28-2.48-3.89-1.95h0c-0.7,0.27-0.65,0.32-0.8,0.4l-0.82,0.64
		c-2.36,1.92-10.17,8.63-18.28,15.52c-7.18,6.1-14.6,12.33-18.3,15.22c-7.24-7.5-15.9-13.64-25.42-17.82
		c-59.84-26.73-112.26,25.35-108.54,85.54c0.7,27.75,14.58,55.55,38.25,70.83c3.62,2.77,9.49,4.14,14.13,4.22
		c4.97,0.18,9.91,0.55,14.79-0.08c34.98-12.15,71.41-20.98,108.44-23.7c2.09-0.06,2.06-3.31,0.02-3.4
		c-12.23-0.62-24.38,0.15-36.43,1.76c16.4-18.61,18.16-46.72,16.72-70.6c-1.25-14.13-6.78-27.55-15.22-38.83
		c2.12,0.53,4.26,1.15,5.45,1.67c0.66,0.27,2.68,1.37,5.22,2.74c3.86,2.08,9.18,4.89,14.84,7.27c5.67,2.38,11.64,4.37,17.14,4.7
		c1.7,0.1,3.15-1.2,3.25-2.9s-1.2-3.15-2.9-3.25c-5.67-0.29-13.57-3.33-20.34-6.59c-3.39-1.62-6.53-3.29-9.08-4.65
		c-2.57-1.38-4.43-2.42-5.71-2.98c-0.03-0.01-0.06-0.02-0.09-0.03c8.27-1.55,19.44-2.9,29.36-3.88c6.58-0.66,12.64-1.17,17.06-1.52
		c4.42-0.35,7.17-0.53,7.18-0.53c1.7-0.11,2.98-1.58,2.87-3.28C965.33,368.27,963.86,366.99,962.16,367.1z"/>
	<path class="st16" d="M889.19,494.22c-0.02,0.01-0.02,0.03-0.03,0.04c-21.53,3.85-42.66,10.37-63.16,17.77
		c-6.23,0.15-12.85,0.29-18.88-0.91c-25.15-11.91-39.7-41.1-40.48-68.36c-2.91-43.62,27.96-89.53,75.01-86.11
		c25.77,1.9,50.13,18.18,61.53,41.38C916.28,423.9,913.63,475.4,889.19,494.22z"/>
	<g>
		<ellipse class="st17" cx="779.9" cy="444.66" rx="9.54" ry="9.81"/>
		<ellipse class="st17" cx="795.24" cy="462.02" rx="5.77" ry="6.36"/>
	</g>
	<path d="M829.62,387.12c0,0-23.89-2.39-29.35,25.94c-5.46,28.33-1.02,42.32,11.6,51.53c12.63,9.21,43,12.29,48.46-17.06
		C865.8,418.17,858.29,389.85,829.62,387.12z"/>
	
		<ellipse transform="matrix(0.1299 -0.9915 0.9915 0.1299 302.6408 1178.1244)" class="st22" cx="822.6" cy="416.62" rx="21.62" ry="14.51"/>
	<ellipse class="st22" cx="846.75" cy="439.26" rx="5.35" ry="6.14"/>
	<path d="M803.3,591.67c-0.31-2.33-1.16-4.64-2.73-6.4s-3.91-2.89-6.26-2.68c-1.88,0.17-3.57,1.14-5.18,2.12
		c-13.93,8.46-26.73,18.8-37.92,30.64c-2.21,2.34-4.39,4.77-7.06,6.58c-2.13,1.44-5.21,2.38-7.1,0.63
		c-1.85-1.72-1.22-4.77-0.16-7.06c2.61-5.64,6.91-10.31,11.34-14.66c7.31-7.17,15.19-13.77,23.55-19.68
		c6.7-4.74,14-9.19,22.17-10.74c6.39-1.21,14.37,1.37,15.97,8.45C811.07,583.97,808.12,589.67,803.3,591.67z"/>
	<g>
		<path class="st14" d="M567.99,887.84c-6-5.52-13.41-10.32-20.57-11.3c-5.64-0.77-11.91,0.37-17.64,2.12
			c-3.17,6.01-6.11,13.64-5.36,20.51c1.32,12.13,12.14,14.56,22.69,17.6c1.89-1.63,4.11-2.77,6.71-2.87
			c3.24-0.12,5.19,1.51,6.36,3.75c8.34-2.91,14.59-13.18,7.94-29.53C568.08,888.02,568.03,887.94,567.99,887.84z"/>
		<path class="st14" d="M421.04,914.39c0,0,1.21-31.08-29.48-35.79c-7.1-1.09-14.34,0.83-20.21,4.98
			c-7.19,5.09-15.37,13.49-12.92,24.43c4.17,18.66,15.47,14.98,25.29,10.8c2.62-1.11,5.92-2.18,9.48-3.09
			c1.8-2.96,4.61-5.14,9.07-5.02c2.86,0.08,5.05,1.04,6.77,2.46C413.78,912.89,418.09,913.18,421.04,914.39z"/>
		<path class="st14" d="M498.87,911.69c4.67-1,10.13-14.83,10.76-27.21c-3.81-5.49-15.46-18.77-39.42-19.33
			c-5.32-0.13-10.13,0.61-14.49,1.85c-8.74,3.29-17.96,10.52-18.72,26.52c-1.29,27.15,22.93,24.99,33.87,21.57
			c2.72-2.56,6.14-4.24,10.38-3.68c0.72,0.09,1.36,0.25,1.98,0.43C488.71,911.67,494.45,912.64,498.87,911.69z"/>
	</g>
	<g>
		<path class="st23" d="M1375.33,513.59c-0.52-5.34-1.12-10.67-1.86-15.96c-15.66-15.58-39.37-19.81-60.44-22.46
			c1.83,10.66,5.02,25.11,3.68,38.01c-1.82,33.97-3.23,68.08-4.51,102.04c-3.35,3.52-4.18-21.39-4.34-32.07
			c-0.82-36.03,4.71-71.92,3.01-107.98c-13.23-1.58-26.51-1.31-39.77-1.07c1.46,23.92,3.65,47.81,2.4,71.8
			c-0.46-0.03-1.4-0.12-1.89-0.15c-1.7-23.8-4.53-47.51-3.13-71.43c-1.19-0.09-3.5-0.3-4.65-0.4c1.19,16.25,6.17,32.84,1.37,48.91
			c-3.83-16.01-3.65-32.63-5.99-48.88c-13.74,0-27.45,0.55-41.17,1.1c1.49,20.09,5.59,40.36,1.98,60.44
			c-4.56-2.77-3.5-8.52-4.07-12.93c-0.48-12.84-1.22-32.82-3.31-47.83c-5.1,0.61-10.08,1.28-14.89,2.02
			c0.14,16.93-0.56,45.62-0.92,72.72c-2.04,7.73-2.34,15.77-2.16,23.74c-0.73,0.03-2.19,0.06-2.92,0.09
			c0.06-13.57-0.09-27.18-0.97-40.72c0.82-18.08,0.09-36.19,0.43-54.3c-11.46,1.98-22.83,4.5-34.14,7.15
			c0.03,0.19,0.07,0.38,0.1,0.57c1.29,7.03,1.76,14.19,1.44,21.33c-0.21,4.67-0.4,9.35-0.57,14.01c-0.55-0.03-1.67-0.15-2.22-0.18
			c-0.45-11.74-0.91-23.48-1.39-35.19c-1.4,0.39-2.76,0.78-4.12,1.17c-6.65,2.24-13.32,4.44-20,6.53
			c-1.09,20.94,5.93,41.18,4.65,62.12c-1.06-0.33-3.16-1.03-4.2-1.4c-6.87-18.41-6.6-38.5-6.93-57.89
			c-2.58,0.82-5.16,1.67-7.72,2.54c-9.77,4.06-17.54,7.92-23.33,11.07c1.68,18.26,2.69,36.58,4.33,54.86
			c2.25,33.26,9.52,65.92,12.89,99.06c-0.61,0.03-1.82,0.06-2.43,0.09c-5.11-27.91-11.89-55.54-14.26-83.88
			c-1.85-22.46-4.2-44.89-4.53-67.41c-5.21,1.45-7.35,5.43-8.08,10.09c1.55,17.54,6.61,75.69,9.41,118.25
			c2.21,23.2,4.05,46.42,4.48,69.76c5.41,48.36,12.5,96.63,18.61,144.93c6.84,12.45,18.99,17.09,32.18,18.91l31.12-0.54
			c-2.77-12.12-7.56-33.41-5.04-36.09c5.39,5.22,6.88,24.73,10.57,35.99l27.16-0.47c-1.35-27.53-3.61-55.04-4.2-82.6l3.59,2.25
			c2.77,26.65,5.43,53.41,5.51,80.26l120.11-2.08l5.25-16.75c0,0-7.69,7.38-14.15,5.54c-6.46-1.85-0.92-11.07-0.92-11.07
			s-14.76,7.07-15.38,5.23c-0.62-1.85,15.69-11.07,22.15-16.3c5.39-4.37,6.46,0.62,3.08,4.31c-3.38,3.69-11.69,13.23-6.15,13.53
			c5.54,0.31,12.61-7.07,12.61-7.07l5.54-25.22c0,0,0.31,13.53-0.92,21.53c-1.11,7.19-4.24,23.03-4.87,26.18l1.1-0.02
			c0.9-0.46,1.76-0.96,2.58-1.51c7.63-6.35,12.58-16.05,17.08-34.74c0.44-2.39,0.86-4.78,1.24-7.17
			c3.03-23.55,4.7-84.74,7.24-133.21c-0.17-5.55-0.13-11.09,0.71-16.63c0.19-1.88,0.4-3.75,0.59-5.63
			c0.5-7.52,1.04-14.42,1.63-20.39C1376.34,614.31,1375.8,544.56,1375.33,513.59z M1138.7,847.65c-0.43,5.2-0.88,10.44-1.4,15.67
			c-13.83-5.45-17.94-22.92-18.82-36.37c4.96,9.92,6.84,21.7,14.87,29.83c0.73-13.27-0.88-26.51,0.06-39.75
			c5.5,3.74,4.99,11.11,7.02,16.8c2.04,9.98,8.12,18.29,13.41,26.72C1146.97,858.82,1143.08,852.61,1138.7,847.65z M1153.51,802.43
			c-2.4,7.73-12.19,5.27-12.4-2.28c-5.84-37.46-2.77-75.57-5.87-113.22c-0.3-29.68-2.74-61.35-2.02-91
			c0.03-1.18,0.98-2.14,2.21-2.18c1.21-0.05,2.24,0.88,2.32,2.08l4.51,91.01c0.26,0.98,3.1,99.66,3.27,104.81
			c0.18,5.15,1.26,9.17,3.2,8.31c9.86-23.74,13.8-49.63,15.23-75.16c0.43-7.74,0.63-15.5,0.63-23.25c0-3.81-0.04-7.61-0.11-11.42
			c-0.03-1.44,0.94-10.69-0.8-10.95c-1.49-0.22-2.1,3.51-2.28,4.37c-1.06,4.9-1.49,10.18-1.82,15.19
			c-1.06,16.04-0.85,32.2,1.37,48.15c-7.69,0.43-6.81-9.43-7.75-14.52c-0.33-18.82-1.54-38.54,4.58-56.59
			c1.16-3.42,5.53-4.76,8.18-2.32c4.68,4.31,4.68,13.21,4.75,19.43C1170.14,729.75,1169.8,768.49,1153.51,802.43z M1210.01,596.45
			l-3.12,1.43c-2.28-11.6-0.82-25.38-3.1-36.82c0.24-24.52,0.13-56.75-1.97-83.23l4.61-0.34c1.51,7.46,2.65,15.88,2.86,20.6
			C1210.79,523.04,1210.16,571.46,1210.01,596.45z M1259.34,730.15c0.58,0.03,1.7,0.09,2.25,0.12c-0.94,14.12-0.79,29.06-6.35,42.24
			C1253.05,758.18,1256.75,744.12,1259.34,730.15z M1246.39,671.26c1.19-26.84,1.95-53.69,3.92-80.44c0.4,0,1.19,0.03,1.58,0.03
			c4.29,55.42-4.41,110.51-5.41,165.81c-0.24,4.05-0.85,8.1-1.7,12.05C1241.43,736.32,1243.26,703.58,1246.39,671.26z
			 M1224.87,740.53c2.66-3.9,3.9,1.6,3.9,1.6l1.42,22.72c0,0,0.18,4.08-1.77,4.44c-1.95,0.35-3.55-2.84-3.55-2.84V740.53z
			 M1276.08,867.85c-5.6,0.13-11.65-1.25-15.29-5.51c-3.52-4.12-4.04-9.97-4.03-15.39c0.02-7.8,0.8-15.61,2.33-23.26
			c-5.33,7.54-8.09,16.61-12.95,24.47c-3.85,6.23-10,12.46-17.52,13.76c-6.77,1.17-0.58-2.07,1.72-3.6c3.4-2.27,6.3-5.25,8.74-8.51
			c3.91-5.25,6.68-11.24,9.42-17.18c4.12-8.93,8.23-17.86,12.35-26.79c0.33-0.72,0.68-1.46,1.04-2.19c1.81-3.62,4.12-7.12,7.85-8.45
			c-4.11,15.43-6.84,31.23-8.16,47.15c-0.48,5.8-0.62,12.16,2.9,16.79c1.01,1.32,2.33,2.47,3.91,2.97c1.05,0.33,2.17,0.36,3.27,0.34
			c12.41-0.2,23.98-5.89,35.07-11.46C1300.01,861.08,1288.19,867.58,1276.08,867.85z M1326.77,742.02c-2.52-7.03-3.37-14.55-3.16-22
			c3.77-74.02,15.47-147.79,10.91-222.05c7.54,4.69,6.11,13.79,6.66,21.3C1343.19,593.83,1332.88,667.91,1326.77,742.02z"/>
		<g>
			<path class="st24" d="M1268.38,862.11c1.05,0.33,2.17,0.36,3.27,0.34c5.34-0.09,10.52-1.23,15.59-2.9
				c-4.76-1.81-11.7-2.81-17.48-2.81c-1.74,0-4.11-0.09-6.82-0.26c0.42,0.93,0.89,1.84,1.53,2.67
				C1265.47,860.47,1266.79,861.62,1268.38,862.11z"/>
			<path class="st24" d="M1214.08,873.59l76.81-1.33c0.97-2.93,1.78-5.72,1.96-7.5c0.04-0.44-0.06-0.87-0.22-1.28
				c-5.11,2.66-10.79,4.24-16.55,4.37c-5.6,0.13-11.65-1.25-15.29-5.51c-1.54-1.81-2.49-3.95-3.09-6.24
				c-5.37-0.43-11.3-1.06-16.29-1.77c-3.5,3.73-7.84,6.74-12.79,7.59c-6.77,1.17-0.58-2.07,1.72-3.6c2.08-1.39,3.95-3.06,5.66-4.88
				c-3.79-0.73-6.2-1.5-5.9-2.24c0.49-1.23-0.22-37.25-2.08-81.94c-1.76-0.1-3.15-2.83-3.15-2.83v-25.91c0.68-1,1.27-1.38,1.77-1.39
				c-1.94-38.95-4.65-79.93-8.09-108.31c-1.96-16.13-4.65-32.52-8.44-48.23c-0.04,5.08-0.08,9.8-0.1,13.85l-3.12,1.43
				c-2.28-11.6-0.82-25.38-3.1-36.82c0-0.2,0-0.42,0.01-0.62c-2.06-6.14-4.34-12.08-6.87-17.76c-0.03,2.27-0.07,4.53-0.1,6.79
				c-2.04,7.73-2.34,15.77-2.16,23.74c-0.73,0.03-2.19,0.06-2.92,0.09c0.06-13.57-0.09-27.18-0.97-40.72
				c0.03-0.69,0.03-1.38,0.06-2.08c-8.37-15.01-18.99-27.48-32.53-35.83c0.37,4.21,0.49,8.44,0.3,12.67
				c-0.21,4.67-0.4,9.35-0.57,14.01c-0.55-0.03-1.67-0.15-2.22-0.18c-0.37-9.53-0.74-19.05-1.13-28.56
				c-2.79-1.52-5.71-2.86-8.74-4.03c-5.21,1.74-10.41,3.47-15.64,5.11c-1.09,20.94,5.93,41.18,4.65,62.12
				c-1.06-0.33-3.16-1.03-4.2-1.4c-6.87-18.41-6.6-38.5-6.93-57.89c-2.58,0.82-5.16,1.67-7.72,2.54
				c-9.77,4.06-17.54,7.92-23.33,11.07c1.68,18.26,2.69,36.58,4.33,54.86c2.25,33.26,9.52,65.92,12.89,99.06
				c-0.61,0.03-1.82,0.06-2.43,0.09c-5.11-27.91-11.89-55.54-14.26-83.88c-1.85-22.46-4.2-44.89-4.53-67.41
				c-5.21,1.45-7.35,5.43-8.08,10.09c1.55,17.54,6.61,75.69,9.41,118.25c2.21,23.2,4.05,46.42,4.48,69.76
				c5.41,48.36,12.5,96.63,18.61,144.93c6.84,12.45,18.99,17.09,32.18,18.91l31.12-0.54c-2.77-12.12-7.56-33.41-5.04-36.09
				c5.39,5.22,6.88,24.73,10.57,35.99l27.16-0.47c-1.35-27.53-3.61-55.04-4.2-82.6l3.59,2.25
				C1211.33,819.98,1213.99,846.74,1214.08,873.59z M1138.7,847.65c-0.43,5.2-0.88,10.44-1.4,15.67
				c-13.83-5.45-17.94-22.92-18.82-36.37c4.96,9.92,6.84,21.7,14.87,29.83c0.73-13.27-0.88-26.51,0.06-39.75
				c5.5,3.74,4.99,11.11,7.02,16.8c2.04,9.98,8.12,18.29,13.41,26.72C1146.97,858.82,1143.08,852.61,1138.7,847.65z M1153.51,802.43
				c-2.4,7.73-12.19,5.27-12.4-2.28c-5.84-37.46-2.77-75.57-5.87-113.22c-0.3-29.68-2.74-61.35-2.02-91
				c0.03-1.18,0.98-2.14,2.21-2.18c1.21-0.05,2.24,0.88,2.32,2.08l4.51,91.01c0.26,0.98,3.1,99.66,3.27,104.81
				c0.18,5.15,1.26,9.17,3.2,8.31c9.86-23.74,13.8-49.63,15.23-75.16c0.43-7.74,0.63-15.5,0.63-23.25c0-3.81-0.04-7.61-0.11-11.42
				c-0.03-1.44,0.94-10.69-0.8-10.95c-1.49-0.22-2.1,3.51-2.28,4.37c-1.06,4.9-1.49,10.18-1.82,15.19
				c-1.06,16.04-0.85,32.2,1.37,48.15c-7.69,0.43-6.81-9.43-7.75-14.52c-0.33-18.82-1.54-38.54,4.58-56.59
				c1.16-3.42,5.53-4.76,8.18-2.32c4.68,4.31,4.68,13.21,4.75,19.43C1170.14,729.75,1169.8,768.49,1153.51,802.43z"/>
		</g>
	</g>
	<g>
		<path class="st25" d="M1012.37,124.77l8.67-3.34l-30.23-30.52c-3.19,0.28-6.4,0.59-9.64,0.92L1012.37,124.77z"/>
		<path class="st25" d="M985.91,155.96c0.93-0.66,1.44-1.03,1.44-1.03c0.42-0.22,0.82-0.41,1.23-0.62l0.44-8.53
			c-15.69-17.31-44.74-39.22-55.17-46.89c-3.71,0.78-7.32,1.62-10.83,2.51C949.79,116.19,977.67,146.6,985.91,155.96z"/>
		<path class="st25" d="M927.66,112.1c0,0,33.02,25.01,41.02,47.02l12.05,0.59c0.36-0.26,0.7-0.51,1.04-0.76
			C977.84,153.44,954.42,121.83,927.66,112.1z"/>
		<path class="st25" d="M963.73,172.45c1.47-1.13,2.9-2.23,4.3-3.29l-20.36-20.04L963.73,172.45z"/>
		<path class="st25" d="M1027.7,136.47c1.27-0.49,2.49-0.96,3.67-1.39l-9.32-9.64L1027.7,136.47z"/>
		<path class="st25" d="M1028.38,118.43c-4.22-4.92-16.97-20.02-24.2-28.59c-1.46,0.1-2.91,0.21-4.39,0.32
			C1009.59,99.96,1030.01,120.33,1028.38,118.43z"/>
		<path class="st25" d="M1046.39,125.1l5-1.67l-31.13-34.59c-1.32,0.07-2.64,0.14-4,0.22C1024.07,97.73,1044.72,120.1,1046.39,125.1
			z"/>
		<path class="st25" d="M953.32,95.38c24.91,13.68,52.86,41.98,58.63,47.7c0.14-0.06,0.28-0.12,0.42-0.19
			c-5.96-10.22-30.5-38.36-40.79-50c-0.83,0.1-1.66,0.19-2.49,0.3l2.25,5.89l-8.62-5.07C959.57,94.44,956.44,94.9,953.32,95.38z"/>
		<path class="st25" d="M1033.3,88.24c-1.75,0.07-3.55,0.14-5.4,0.23l25.83,22.96L1033.3,88.24z"/>
		<path class="st25" d="M389.64,114.62c-2.81,7.41-10.98,21.2-10.98,21.2l0.61,0.54c1.45,0.57,2.94,1.18,4.5,1.83
			c2.36-4.54,9.89-18.81,15.84-28.16c4.16-6.54,12.72-13.93,19.16-18.98c-2.46-0.23-4.9-0.44-7.32-0.64
			C404.61,96.75,391.69,109.22,389.64,114.62z"/>
		<path class="st25" d="M328.14,122.07c7.25-7.53,20.72-22.42,23.96-24.04c4.09-2.04,4.85-5.36,3.58-7.15
			c-0.92-1.29-10.57,2.07-18.48,7.38C334.75,104.08,331.58,112.14,328.14,122.07z"/>
		<path class="st25" d="M369.46,114.11c0-1.28-1.79-1.02-1.79-1.02s-12.2,11.98-13.2,15.14c0.72,0.17,1.46,0.35,2.26,0.55
			c0.57-0.46,1.23-1.03,1.99-1.64C361.29,125.1,369.46,115.39,369.46,114.11z"/>
		<path class="st25" d="M346.22,111.81c-2.3,7.92-2.81,12,0.51,10.98c3.32-1.02,10.73-13.03,15.83-17.11
			c3.26-2.61,10.68-11.35,15.62-17.34c-4.03-0.17-7.8-0.31-11.31-0.42C360.05,94.27,347.87,106.16,346.22,111.81z"/>
		<path class="st25" d="M471.42,98.54c-11.6,6.83-41.66,26.66-44.74,50.31c0,0,23.66-29.78,57.99-47.16
			C480.43,100.55,476,99.5,471.42,98.54z"/>
		<path class="st25" d="M460.72,96.48c-3.91-0.69-7.88-1.32-11.89-1.91c-5.68,4.51-13.9,11.73-20.37,20.3
			c-10.98,14.56-18.39,22.22-18.39,24.77c0,2.55,0,2.55,0,2.55s3.83-2.55,6.9-6.13c3.06-3.58,11.24-9.19,11.24-9.19
			s-11.75,15.58-16.35,19.67c-1.3,1.15-2.2,2.21-2.87,3.16c2.29,1.13,4.63,2.29,7.07,3.53c0,0,0.4,0.28,1.07,0.76
			c3.67-8.82,13.84-31.81,23.85-41.42C446.94,106.86,454.47,101.03,460.72,96.48z"/>
		<path class="st25" d="M1056.4,94.75l-5.22-7.04c-1.66,0.03-3.46,0.07-5.39,0.12c6.35,6.98,16.58,18.9,17.95,24.59
			c0,0-1-13.01-2.67-15.67C1059.4,94.09,1056.4,94.75,1056.4,94.75z"/>
		<path class="st25" d="M389.31,140.54c2.12,0.92,4.33,1.91,6.63,2.96c5.23-9.9,21.76-39.4,38.48-50.82
			c-3.04-0.36-6.08-0.68-9.1-0.99C416.39,99.67,394.76,120.59,389.31,140.54z"/>
		<path class="st25" d="M390.66,107.47c12.77-9.7,13.28-12.51,13.28-12.51s-8.43,3.58-14.56,8.17c-6.13,4.6-27.58,26.56-27.58,26.56
			l1.83,1.06c1.1,0.34,2.27,0.73,3.48,1.13C369.33,128.96,379.39,116.04,390.66,107.47z"/>
	</g>
	<g>
		<path d="M456.83,762.08c-0.24-6.71-1.02-10.75-1.04-10.84c-0.22-1.09-1.27-1.8-2.36-1.58c-1.09,0.22-1.8,1.27-1.58,2.36l0,0
			l0.04,0.21c0.19,1.07,0.99,6.07,0.99,13.65c0,0.1,0,0.22-0.01,0.32C454.15,764.83,455.48,763.46,456.83,762.08z"/>
		<path d="M462.78,734c0.21-1.39,0.31-2.79,0.31-4.18c0-2.06-0.22-4.11-0.66-6.13c-0.39-1.76-1.07-3.62-2.2-5.24
			c-1.12-1.6-2.81-3.02-5.07-3.37c-0.36-0.06-0.72-0.08-1.07-0.08c-0.26,0-0.51,0.01-0.76,0.04l0,0c0,0,0,0,0,0c0,0,0,0,0,0v0
			c-1.63,0.17-3.04,0.82-4.25,1.53c-4.27,2.57-7.27,6.97-8.11,11.87c-0.17,1.03-0.26,2.05-0.26,3.06c0,3.17,0.84,6.19,2.59,8.54
			c1.73,2.35,4.53,3.95,7.84,3.92c1.33,0,2.72-0.24,4.17-0.72c1.6-0.54,3.37-1.31,4.79-2.81C461.87,738.51,462.46,736.1,462.78,734z
			 M458.8,733.41c-0.26,1.79-0.77,3.37-1.66,4.29c-0.68,0.74-1.81,1.31-3.13,1.75c-1.09,0.36-2.05,0.52-2.89,0.52
			c-2.08-0.02-3.48-0.84-4.61-2.31c-1.11-1.47-1.79-3.67-1.78-6.13c0-0.78,0.07-1.58,0.2-2.39c0.62-3.7,2.99-7.17,6.21-9.09
			c0.89-0.54,1.82-0.91,2.6-0.98l-0.21-2l0.21,2l0.35-0.02l0.45,0.03c0.9,0.14,1.67,0.69,2.41,1.71c0.72,1,1.27,2.42,1.56,3.78
			c0.38,1.72,0.57,3.49,0.57,5.26C459.06,731.02,458.97,732.22,458.8,733.41z"/>
		<path d="M443.24,704.83c-0.07,1.11,0.77,2.07,1.88,2.14s2.07-0.77,2.14-1.88c0.11-1.63,0.16-3.23,0.16-4.8
			c-0.02-25.2-12.82-43.27-12.93-43.45c-0.64-0.91-1.9-1.12-2.8-0.48s-1.12,1.9-0.48,2.8l0.02,0.03
			c0.63,0.89,12.19,18.04,12.17,41.1C443.39,701.78,443.34,703.29,443.24,704.83z"/>
	</g>
	<g>
		<path d="M627.73,192.03l20.68-2.24l-0.29-2.67l-0.47-2.64l-36.7,6.52c-1.36,0.24-2.31,1.47-2.21,2.85
			c0.11,1.38,1.24,2.45,2.63,2.47l20.49,0.37l0.05-2.68l-0.28-2.67l-23.1,2.42c-1.35,0.14-2.37,1.25-2.4,2.6
			c-0.03,1.35,0.94,2.51,2.27,2.72l12.11,1.86l0.34,0.03l11.71,0.28l-10.7,4.84c-1.12,0.51-1.75,1.7-1.54,2.92
			c0.22,1.21,1.22,2.12,2.45,2.21l5.87,0.42l-6.06,1.78c-1.27,0.37-2.07,1.61-1.91,2.91c0.17,1.31,1.26,2.3,2.58,2.34l14.03,0.44
			l-5.2,2.92c-1.06,0.6-1.59,1.83-1.29,3s1.35,2.01,2.57,2.02l3.72,0.04l-0.51,0.23c-1.14,0.51-1.77,1.75-1.53,2.98
			s1.31,2.12,2.56,2.15l6.89,0.19l0.07-2.68l-1.07-2.46l-5.59,2.42c-0.95,0.41-1.58,1.33-1.61,2.36c-0.04,1.03,0.52,2,1.44,2.48
			l4.43,2.32l-7.79,7.11c-0.86,0.79-1.12,2.03-0.63,3.1c0.48,1.06,1.59,1.69,2.75,1.55l3.68-0.43l-1.44,1.48
			c-0.89,0.92-1.01,2.35-0.28,3.4c0.73,1.05,2.11,1.45,3.28,0.93l7.27-3.17l-1.07-2.46l-2.5-0.97c0,0.01-0.54,1.39-1.09,2.89
			c-0.27,0.75-0.55,1.53-0.76,2.21c-0.11,0.34-0.2,0.66-0.28,0.96l-0.11,0.47c-0.03,0.18-0.07,0.35-0.07,0.69
			c0.01,0.22-0.02,0.5,0.22,1.1c0.12,0.29,0.35,0.71,0.82,1.08c0.46,0.38,1.15,0.61,1.69,0.59c0.85-0.02,1.25-0.3,1.49-0.44
			l0.03-0.02c0.25-0.17,0.33-0.25,0.44-0.35c0.38-0.34,0.82-0.79,1.38-1.36c1.65-1.7,4.05-4.28,4.05-4.29
			c1.01-1.09,0.95-2.78-0.14-3.79c-1.09-1.01-2.78-0.95-3.79,0.14c0,0-1.2,1.3-2.47,2.63c-0.63,0.67-1.28,1.35-1.8,1.87
			c-0.26,0.26-0.48,0.48-0.63,0.63l-0.16,0.15l0,0l1.16,1.42l-1.02-1.52l-0.14,0.1l1.16,1.42l-1.02-1.52l1.49,2.23l-1.45-2.26
			l1.42,2.2v-2.61c-0.83,0.02-1.2,0.29-1.42,0.41l1.42,2.2v-2.61v2.66l1.66-2.07c-0.45-0.37-1.13-0.6-1.66-0.58v2.66l1.66-2.07
			l-1.64,2.05l2.55-0.64c-0.08-0.29-0.23-0.84-0.91-1.42l-1.64,2.05l2.55-0.64l-2.38,0.59h2.45c0-0.12,0-0.28-0.07-0.59l-2.38,0.59
			h2.45h-1.59l1.57,0.29c0-0.01,0.02-0.05,0.02-0.29h-1.59l1.57,0.29c0-0.02,0.14-0.55,0.34-1.12c0.29-0.88,0.7-2.01,1.04-2.9
			c0.34-0.9,0.59-1.55,0.59-1.56c0.39-1.01,0.14-2.16-0.64-2.91c-0.78-0.75-1.94-0.96-2.93-0.52l-7.27,3.17l1.07,2.46l1.92,1.87
			l6.71-6.89c0.79-0.81,0.99-2.04,0.48-3.06c-0.5-1.02-1.59-1.61-2.72-1.48l-2.91,0.34l4.47-4.08c0.65-0.59,0.97-1.45,0.85-2.33
			c-0.11-0.87-0.64-1.63-1.42-2.03l-2.85-1.49l0.44-0.19c1.15-0.5,1.81-1.74,1.57-2.97c-0.24-1.23-1.31-2.14-2.56-2.17l-6.89-0.19
			l-0.07,2.68l1.1,2.45l11.55-5.22c1.14-0.52,1.78-1.77,1.52-3c-0.26-1.23-1.34-2.12-2.6-2.13l-5.82-0.07l4.87-2.73
			c1.05-0.59,1.58-1.81,1.29-2.98c-0.29-1.17-1.32-2.01-2.52-2.04l-6.88-0.22l4.2-1.23c1.24-0.37,2.05-1.57,1.91-2.86
			c-0.14-1.29-1.18-2.3-2.48-2.39l-10.12-0.73l11.78-5.33c1.14-0.52,1.77-1.75,1.52-2.98c-0.25-1.23-1.31-2.12-2.57-2.15l-23.3-0.55
			l-11.94-1.84l-0.41,2.65l0.28,2.67l23.1-2.42c1.41-0.15,2.46-1.37,2.4-2.78c-0.06-1.42-1.22-2.54-2.63-2.57l-20.49-0.37
			l-0.05,2.68l0.47,2.64l36.7-6.52c1.43-0.25,2.39-1.59,2.19-3.02c-0.2-1.44-1.5-2.44-2.95-2.29l-20.68,2.24
			c-1.47,0.16-2.54,1.48-2.38,2.96C624.93,191.12,626.26,192.19,627.73,192.03L627.73,192.03z"/>
		<path d="M671.51,184.22l35.21-1.3l-0.1-2.68l-0.41-2.65l-32.23,5.03c-1.4,0.22-2.39,1.49-2.26,2.9s1.33,2.48,2.75,2.44l4.1-0.11
			l-0.21,0.06c-1.27,0.34-2.11,1.56-1.97,2.86c0.13,1.31,1.2,2.33,2.51,2.41l9.97,0.6l-4.63,1.42c-0.36,0.11-0.71,0.31-0.99,0.56
			l-4.84,4.29c-0.83,0.74-1.12,1.91-0.74,2.95c0.39,1.04,1.38,1.73,2.49,1.74l10.54,0.09l-15.79,7.67
			c-1.14,0.55-1.74,1.83-1.43,3.06c0.3,1.23,1.43,2.08,2.69,2.04l11.05-0.34l-2.74,2.61c-0.77,0.74-1.04,1.86-0.67,2.86
			c0.37,1,1.29,1.69,2.36,1.76l9.13,0.56l0.16-2.68l-1.16-2.42l-13.6,6.52c-0.9,0.43-1.49,1.33-1.52,2.33
			c-0.03,1,0.49,1.93,1.36,2.43l7.27,4.1c1.22,0.69,2.77,0.32,3.55-0.85l0.75-1.13l0.59,0.61l-5.55,7.49
			c-0.53,0.71-0.67,1.65-0.37,2.49c0.29,0.84,0.99,1.48,1.85,1.7l1.6,0.42l0.09,2.83l-3.51,3.66c-0.77,0.8-0.96,2-0.49,3.01
			c0.48,1,1.53,1.61,2.64,1.53l7.08-0.56l-0.21-2.68l-2.33-1.33l-2.24,3.91c-0.74,1.29-0.29,2.93,1,3.66c1.29,0.74,2.93,0.29,3.66-1
			l2.24-3.91c0.49-0.86,0.47-1.93-0.06-2.77c-0.53-0.84-1.49-1.32-2.48-1.24l-7.08,0.56l0.21,2.68l1.94,1.86l4.29-4.47
			c0.5-0.52,0.77-1.22,0.74-1.94l-0.19-5.96c-0.04-1.19-0.85-2.21-2-2.51l-3.54-0.93l-0.68,2.6l2.16,1.6l6.89-9.32
			c0.78-1.05,0.69-2.51-0.22-3.45l-4.47-4.66c-0.56-0.59-1.36-0.89-2.17-0.81c-0.81,0.07-1.54,0.51-2,1.18l-1.23,1.84l-0.61-0.34
			l8.96-4.29c1.1-0.53,1.71-1.73,1.47-2.93c-0.23-1.2-1.25-2.09-2.47-2.16l-2.98-0.18l3.37-3.21c0.8-0.77,1.05-1.95,0.63-2.98
			c-0.43-1.02-1.45-1.68-2.56-1.65l-5.53,0.17l14.79-7.19c1.12-0.55,1.72-1.79,1.45-3c-0.27-1.22-1.35-2.08-2.6-2.09l-21.99-0.19
			l-0.02,2.68l1.78,2.01l4.41-3.9l18.26-5.61c1.24-0.38,2.03-1.6,1.88-2.88c-0.15-1.29-1.21-2.28-2.5-2.36l-8.33-0.5l6.25-1.68
			c1.31-0.35,2.16-1.63,1.96-2.98c-0.2-1.35-1.37-2.33-2.73-2.29l-26.83,0.75l0.07,2.68l0.41,2.65l32.23-5.03
			c1.4-0.22,2.39-1.5,2.26-2.91c-0.14-1.41-1.35-2.48-2.77-2.42l-35.21,1.3c-1.48,0.05-2.64,1.3-2.58,2.78
			C668.79,183.12,670.03,184.27,671.51,184.22L671.51,184.22z"/>
		<path d="M724.22,185.76l0.32,0.09l0.41,0.07c0.89,0.11,3.51,0.36,7.09,0.69c10.71,0.99,29.49,2.64,29.49,2.64l0.23-2.67
			l-0.39-2.66l-25.53,3.73c-1.38,0.2-2.37,1.42-2.29,2.81c0.08,1.39,1.21,2.49,2.61,2.53l20.31,0.56l0.07-2.68l-1.06-2.47
			c0,0-6.07,2.61-12.15,5.29c-3.04,1.34-6.08,2.7-8.38,3.77c-1.15,0.54-2.12,1-2.84,1.36c-0.36,0.19-0.66,0.34-0.93,0.51l-0.48,0.32
			l-0.42,0.4c-0.1,0.11-0.22,0.26-0.36,0.52c-0.13,0.26-0.31,0.65-0.32,1.27c0,0.36,0.08,0.8,0.27,1.18
			c0.28,0.59,0.74,0.97,1.08,1.16c0.35,0.2,0.61,0.26,0.8,0.31l0.03,0.01l0.41,0.06c0.38,0.04,0.91,0.06,1.66,0.1
			c5.2,0.24,20.17,0.64,20.18,0.64l0.07-2.68l-1.15-2.42c0,0-5.65,2.69-11.3,5.44c-2.83,1.37-5.66,2.76-7.79,3.84
			c-1.07,0.54-1.97,1-2.63,1.36c-0.33,0.18-0.6,0.33-0.85,0.48l-0.41,0.28l-0.37,0.33c-0.09,0.1-0.21,0.22-0.36,0.47
			c-0.14,0.25-0.37,0.63-0.39,1.4c-0.01,0.48,0.16,1.1,0.49,1.56c0.51,0.7,1.12,0.93,1.46,1.04c0.36,0.1,0.58,0.1,0.75,0.11v-0.81
			l-0.02,0.81l0.02,0v-0.81l-0.02,0.81c0.06,0,0.47,0.02,0.99,0.06c1.88,0.13,5.74,0.44,9.11,0.72c3.38,0.28,6.27,0.52,6.28,0.52
			l0.22-2.67l-1.22-2.39l-19.38,9.87c-1.13,0.58-1.71,1.87-1.37,3.1c0.34,1.23,1.49,2.05,2.76,1.97l9.17-0.59l-10.86,8.87
			c-0.9,0.73-1.22,1.96-0.81,3.05c0.42,1.08,1.49,1.77,2.64,1.71l11.45-0.6l-7.1,8.29c-0.66,0.77-0.83,1.83-0.44,2.77
			c0.38,0.93,1.26,1.57,2.26,1.65l3.26,0.27l-3.8,3.71c-1.06,1.04-1.08,2.73-0.04,3.79c1.04,1.06,2.73,1.08,3.8,0.04l8.01-7.83
			c0.75-0.74,1.01-1.84,0.65-2.83c-0.36-0.99-1.26-1.68-2.31-1.76l-3.89-0.32l7.76-9.05c0.7-0.82,0.85-1.97,0.37-2.93
			c-0.48-0.97-1.47-1.55-2.55-1.49l-9.51,0.5l10.98-8.97c0.9-0.74,1.23-1.97,0.8-3.06c-0.43-1.09-1.5-1.77-2.67-1.7l-4.55,0.29
			l7.81-3.98c1.07-0.54,1.65-1.73,1.41-2.91c-0.23-1.18-1.21-2.06-2.41-2.16c0,0-3.92-0.33-7.95-0.65
			c-2.02-0.16-4.06-0.33-5.67-0.45c-0.8-0.06-1.5-0.11-2.02-0.15c-0.26-0.02-0.49-0.03-0.67-0.04l-0.49-0.02v2.64l1.13-2.38
			c-0.62-0.27-0.92-0.24-1.13-0.26v2.64l1.13-2.38l-1.15,2.41l2.18-1.54c-0.33-0.46-0.73-0.73-1.03-0.87l-1.15,2.41l2.18-1.54
			l-2.18,1.54l2.67,0c0.01-0.47-0.16-1.09-0.49-1.54l-2.18,1.54l2.67,0h-2.66l2.28,1.38c0.13-0.24,0.37-0.62,0.38-1.38h-2.66
			l2.28,1.38l-2.17-1.31l1.66,1.92c0.09-0.09,0.22-0.16,0.51-0.61l-2.17-1.31l1.66,1.92l-1.23-1.42l1.09,1.54l0.14-0.11l-1.23-1.42
			l1.09,1.54l-0.46-0.65l0.44,0.67l0.02-0.01l-0.46-0.65l0.44,0.67l0.37-0.22c0.86-0.48,2.71-1.41,4.92-2.51
			c3.33-1.65,7.53-3.68,10.9-5.3c3.37-1.62,5.9-2.82,5.9-2.83c1.12-0.53,1.73-1.77,1.47-2.98c-0.26-1.21-1.31-2.09-2.55-2.13
			c-0.01,0-5.21-0.14-10.54-0.3c-2.66-0.08-5.36-0.17-7.43-0.25c-1.04-0.04-1.92-0.08-2.56-0.11c-0.32-0.02-0.58-0.03-0.75-0.04
			l-0.18-0.01l-0.01,0l-0.23,1.83l0.36-1.81l-0.13-0.02l-0.23,1.83l0.36-1.81l-0.53,2.63l0.55-2.63l-0.54,2.58l1.68-2.04
			c-0.52-0.41-0.89-0.49-1.13-0.54l-0.54,2.58l1.68-2.04l-1.69,2.06l2.4-1.17c-0.18-0.38-0.45-0.69-0.71-0.89l-1.69,2.06l2.4-1.17
			l-2.4,1.17H735c0-0.36-0.08-0.79-0.27-1.17l-2.4,1.17H735h-2.65l2.34,1.24c0.13-0.25,0.3-0.63,0.31-1.24h-2.65l2.34,1.24
			l-2.23-1.19l1.7,1.87c0.1-0.1,0.26-0.21,0.53-0.69l-2.23-1.19l1.7,1.87l-1.03-1.13l0.82,1.3l0.21-0.17l-1.03-1.13l0.82,1.3
			c0.07-0.05,0.67-0.37,1.44-0.74c2.77-1.34,8.37-3.83,13.22-5.95c2.43-1.06,4.68-2.04,6.33-2.75c1.64-0.71,2.68-1.16,2.68-1.16
			c1.15-0.5,1.81-1.74,1.58-2.97c-0.24-1.23-1.31-2.14-2.56-2.18l-20.31-0.56l-0.07,2.68l0.39,2.66l25.53-3.73
			c1.35-0.2,2.33-1.37,2.29-2.73c-0.04-1.36-1.09-2.48-2.45-2.6c-0.01,0-2.26-0.2-5.65-0.5c-5.09-0.45-12.75-1.13-19.18-1.71
			c-3.22-0.29-6.13-0.56-8.25-0.76c-1.06-0.1-1.93-0.19-2.53-0.25c-0.3-0.03-0.54-0.06-0.69-0.08l-0.14-0.02l-0.13,0.91l0.17-0.91
			l-0.03-0.01l-0.13,0.91l0.17-0.91l-0.44,2.39l0.77-2.31c-0.26-0.08-0.28-0.07-0.33-0.09l-0.44,2.39l0.77-2.31
			c-1.41-0.47-2.93,0.29-3.39,1.7C722.06,183.77,722.82,185.29,724.22,185.76L724.22,185.76z"/>
		<path d="M373.29,424.89L373.29,424.89c-0.02,1.01-0.38,14.06-0.73,26.83c-0.17,6.39-0.35,12.71-0.48,17.43
			c-0.13,4.72-0.22,7.85-0.22,7.85c-0.04,1.45,1.08,2.67,2.53,2.75c1.45,0.08,2.7-1,2.83-2.44l0.47-5.34l0.03,0.95
			c0.05,1.44,1.24,2.58,2.68,2.59c1.44,0,2.63-1.14,2.69-2.58l2.13-53.6l-2.68-0.11l-2.68,0.12l2.48,57.68
			c0.06,1.42,1.21,2.54,2.62,2.57c1.42,0.03,2.61-1.04,2.73-2.45c0-0.01,0.24-2.83,0.6-7.07c0.54-6.37,1.36-15.91,2.05-23.87
			c0.34-3.98,0.65-7.56,0.88-10.14c0.11-1.29,0.2-2.33,0.27-3.05c0.03-0.36,0.06-0.64,0.07-0.82l0.02-0.19l-0.02,0l0.02,0l0,0
			l-0.02,0l0.02,0l-2.33-0.29l2.31,0.39l0.01-0.1l-2.33-0.29l2.31,0.39l-2.6-0.44l2.56,0.65l0.04-0.21l-2.6-0.44l2.56,0.65
			l-2.6-0.66l2.47,1.04l0.13-0.38l-2.6-0.66l2.47,1.04l-2.47-1.04l2.14,1.62c0.22-0.3,0.28-0.46,0.33-0.58l-2.47-1.04l2.14,1.62
			l-2.14-1.62h0v2.68v-2.68l-1.51,2.22c0.34,0.24,0.91,0.47,1.51,0.47v-2.68l-1.51,2.22l1.51-2.22l-2.42,1.16
			c0.12,0.22,0.26,0.58,0.91,1.06l1.51-2.22l-2.42,1.16l2.42-1.16l-2.64,0.49c0.03,0.13,0.04,0.28,0.22,0.67l2.42-1.16l-2.64,0.49
			l2.62-0.49l-2.66,0c0.01,0.09-0.01,0.15,0.04,0.48l2.62-0.49l-2.66,0l0.01,0.24c0.08,2.77,1.42,38.72,1.42,38.73
			c0.05,1.39,1.15,2.51,2.54,2.58c1.39,0.07,2.6-0.92,2.8-2.3c0-0.01,0.31-2.15,0.77-5.38c0.7-4.84,1.75-12.1,2.67-18.14
			c0.46-3.02,0.89-5.74,1.21-7.68c0.16-0.97,0.3-1.75,0.4-2.24c0.05-0.24,0.09-0.43,0.1-0.47l0-0.01l-1.61-0.46l1.53,0.67l0.08-0.21
			l-1.61-0.46l1.53,0.67l-2.31-1l2.03,1.49c0.19-0.27,0.24-0.39,0.28-0.48l-2.31-1l2.03,1.49l-2.14-1.56l1.59,2.11
			c0.3-0.23,0.44-0.42,0.54-0.55l-2.14-1.56l1.59,2.11l-1.61-2.13v2.67c0.77,0,1.32-0.32,1.61-0.54l-1.61-2.13v2.67v-2.68
			l-1.51,2.21c0.39,0.28,1,0.48,1.51,0.46v-2.68l-1.51,2.21l1.5-2.21l-2.24,1.45c0.13,0.2,0.34,0.48,0.74,0.75l1.5-2.21l-2.24,1.45
			l0.02,0.03l2.17-1.44l-2.46,0.86c0.05,0.12,0.09,0.28,0.29,0.59l2.17-1.44l-2.46,0.86l2.1-0.73l-2.19,0.4l0.09,0.34l2.1-0.73
			l-2.19,0.4l0.67-0.12l-0.68,0.08l0.01,0.04l0.67-0.12l-0.68,0.08c0.02,0.13,0.07,0.91,0.11,1.94c0.14,3.67,0.28,11.16,0.38,17.7
			c0.1,6.55,0.16,12.15,0.16,12.16c0.02,1.37,1.06,2.5,2.42,2.64c1.36,0.14,2.61-0.77,2.89-2.11l5.82-27.36l3.32-9.79l-2.54-0.86
			l-2.68,0.2l2.31,30.71c0.1,1.34,1.18,2.4,2.53,2.48c1.34,0.08,2.54-0.86,2.79-2.18l2.42-12.75l1.94,7.26
			c0.35,1.33,1.66,2.18,3.02,1.96c1.36-0.22,2.33-1.43,2.26-2.8l-1.6-28.04l-2.68,0.15l-2.64,0.48l3.37,18.64
			c0.21,1.16,1.15,2.05,2.32,2.19c1.17,0.14,2.29-0.5,2.77-1.57l2.7-6.06l1.65,6.52c0.3,1.18,1.36,2.01,2.58,2.02
			c1.22,0.01,2.29-0.8,2.61-1.97l3.02-11l-2.59-0.71l-2.68,0.11l0.35,8.52c0.05,1.29,1.02,2.36,2.29,2.54
			c1.27,0.19,2.51-0.56,2.93-1.78l3.37-9.76l-2.54-0.88l-2.68,0.15l0.35,6.39c0.05,0.96,0.62,1.82,1.47,2.25
			c0.86,0.43,1.88,0.37,2.68-0.15l6.74-4.44c1.24-0.81,1.58-2.48,0.77-3.72c-0.81-1.24-2.48-1.58-3.72-0.77l-2.85,1.87l-0.1-1.73
			c-0.07-1.28-1.04-2.33-2.31-2.51c-1.27-0.18-2.49,0.57-2.91,1.78l-3.37,9.76l2.54,0.88l2.68-0.11l-0.35-8.52
			c-0.06-1.32-1.07-2.41-2.38-2.55c-1.31-0.15-2.54,0.68-2.89,1.96l-0.33,1.19l-1.05-4.15c-0.28-1.11-1.23-1.92-2.37-2.02
			c-1.14-0.1-2.22,0.54-2.68,1.58l-2.31,5.19l-1.82-10.08c-0.25-1.39-1.55-2.35-2.96-2.19c-1.41,0.17-2.44,1.4-2.36,2.82l1.6,28.04
			l2.68-0.15l2.59-0.69l-4.97-18.64c-0.32-1.21-1.44-2.04-2.69-1.99c-1.26,0.05-2.3,0.95-2.54,2.18l-0.83,4.35l-0.78-10.44
			c-0.1-1.27-1.08-2.3-2.34-2.46c-1.26-0.16-2.47,0.6-2.88,1.8L399.7,440l-0.08,0.3l-5.86,27.51l2.62,0.56l2.68-0.03
			c0,0-0.09-7.95-0.22-15.97c-0.07-4.01-0.14-8.04-0.23-11.11c-0.04-1.54-0.09-2.83-0.13-3.79c-0.02-0.48-0.05-0.87-0.07-1.19
			l-0.05-0.47l-0.06-0.32l-0.09-0.29c-0.05-0.13-0.1-0.31-0.31-0.62l-2.23,1.49l2.25-1.46c-0.13-0.2-0.34-0.49-0.75-0.76
			c-0.39-0.28-1.01-0.48-1.51-0.47c-0.58,0-1.06,0.19-1.37,0.37c-0.61,0.38-0.76,0.67-0.89,0.85c-0.23,0.36-0.26,0.49-0.31,0.63
			l-0.16,0.53c-0.14,0.59-0.3,1.45-0.51,2.66c-1.42,8.3-4.74,31.69-4.74,31.71l2.66,0.38l2.68-0.1c0-0.01-0.09-2.4-0.22-6
			c-0.2-5.4-0.5-13.52-0.75-20.34c-0.12-3.41-0.24-6.49-0.32-8.75c-0.04-1.13-0.07-2.05-0.1-2.7c-0.01-0.32-0.02-0.58-0.03-0.76
			l-0.01-0.21l0-0.05l0,0l-1.91,0.03h1.91l0-0.03l-1.91,0.03h1.91l-0.02-0.33c-0.02-0.1-0.02-0.22-0.11-0.51
			c-0.06-0.15-0.11-0.36-0.36-0.72c-0.13-0.18-0.32-0.42-0.68-0.66c-0.34-0.24-0.91-0.47-1.51-0.47c-0.84,0-1.63,0.39-2.14,1.06
			c-0.29,0.4-0.32,0.55-0.37,0.68l-0.11,0.36l-0.04,0.25c-0.02,0.19-0.04,0.37-0.08,0.77c-0.52,5.72-3.84,44.58-3.84,44.59
			l2.67,0.23l2.68-0.12l-2.48-57.69c-0.06-1.44-1.24-2.57-2.69-2.57c-1.44,0-2.62,1.14-2.68,2.58l-2.13,53.6l2.68,0.11l2.68-0.1
			l-1.6-44.37c-0.05-1.42-1.2-2.55-2.61-2.59c-1.42-0.04-2.62,1.04-2.74,2.45l-4.26,48.63l2.67,0.23l2.68,0.07
			c0,0,0.36-12.91,0.71-25.89c0.18-6.49,0.36-13,0.49-17.91c0.07-2.46,0.12-4.52,0.16-5.98c0.02-0.73,0.03-1.31,0.05-1.72l0.01-0.48
			l0-0.26c0-1.48-1.2-2.68-2.68-2.68C374.49,422.2,373.29,423.4,373.29,424.89L373.29,424.89z"/>
		<path d="M412.63,571.89l-6.51-13.03l5.13,5.73c0.91,1.02,2.46,1.19,3.57,0.38c1.11-0.8,1.44-2.32,0.76-3.51l-3.15-5.52l3.58,4.16
			c0.9,1.05,2.46,1.24,3.59,0.44c1.13-0.8,1.46-2.33,0.77-3.53l-16.86-29.11l-2.32,1.35l-2.2,1.53l15.44,22.19
			c0.72,1.04,2.07,1.43,3.23,0.94c1.17-0.49,1.84-1.72,1.61-2.96l-1.4-7.64l3.3,6.35c0.61,1.17,1.98,1.73,3.23,1.31
			s2.01-1.69,1.79-2.99l-2.84-16.86l-2.65,0.45l-2.38,1.24l6.39,12.25c0.59,1.13,1.9,1.69,3.13,1.33c1.23-0.36,2.03-1.53,1.92-2.81
			l-1.42-16.33l-2.67,0.23l-2.4,1.2l5.86,11.71c0.57,1.14,1.87,1.72,3.1,1.39c1.23-0.33,2.06-1.49,1.98-2.76l-0.71-11.54l-2.68,0.16
			l-2.37,1.25l3.37,6.39c0.59,1.12,1.9,1.68,3.12,1.32c1.22-0.36,2.03-1.53,1.92-2.8c0,0-0.15-1.87-0.31-3.99
			c-0.15-2.11-0.3-4.55-0.3-5.4l0-0.14l0-0.02l-1.87-0.14l1.82,0.44l0.05-0.3l-1.87-0.14l1.82,0.44l-2.49-0.6l2.21,1.28
			c0.21-0.38,0.24-0.55,0.27-0.68l-2.49-0.6l2.21,1.28l-2.3-1.33l1.65,2.07c0.36-0.3,0.53-0.56,0.64-0.74l-2.3-1.33l1.65,2.07
			l-1.67-2.09l0,2.67c0.68,0.01,1.32-0.29,1.67-0.58l-1.67-2.09l0,2.67v-2.67l-1.35,2.31c0.31,0.18,0.79,0.37,1.35,0.36v-2.67
			l-1.35,2.31l1.33-2.28l-2.12,1.58c0.13,0.17,0.32,0.42,0.79,0.71l1.33-2.28l-2.12,1.58l2.04-1.52l-2.27,1.14l0.23,0.37l2.04-1.52
			l-2.27,1.14l0-0.01c0.16,0.32,1.01,2.07,1.81,3.7c0.8,1.64,1.55,3.19,1.55,3.19c0.53,1.09,1.73,1.69,2.93,1.46
			s2.08-1.24,2.17-2.45l0.36-5.15c0.1-1.48-1.01-2.76-2.49-2.86c-1.48-0.1-2.76,1.01-2.86,2.49l-0.36,5.15l2.68,0.18l2.41-1.17
			c-0.01-0.01-3.01-6.19-3.39-6.95l0-0.01c-0.07-0.14-0.16-0.32-0.42-0.62c-0.14-0.15-0.33-0.34-0.65-0.53
			c-0.31-0.19-0.8-0.37-1.36-0.37c-0.6-0.01-1.19,0.23-1.55,0.49c-0.68,0.51-0.81,0.91-0.93,1.15c-0.17,0.42-0.18,0.58-0.21,0.73
			c-0.05,0.4-0.05,0.58-0.05,0.85c0,1.25,0.16,3.61,0.31,5.79c0.16,2.16,0.31,4.04,0.31,4.05l2.67-0.22l2.37-1.25l-3.37-6.39
			c-0.59-1.12-1.88-1.67-3.1-1.33c-1.22,0.34-2.03,1.49-1.95,2.75l0.71,11.54l2.68-0.16l2.4-1.2l-5.86-11.71
			c-0.58-1.15-1.89-1.73-3.13-1.38c-1.24,0.35-2.06,1.53-1.94,2.82l0.26,2.94l-0.17-0.33c-0.61-1.17-1.98-1.72-3.23-1.3
			c-1.25,0.42-2.01,1.69-1.79,2.99l0.01,0.07l-3.68-7.08c-0.61-1.18-1.99-1.73-3.25-1.3c-1.26,0.43-2.01,1.72-1.77,3.02l2.39,13.03
			l-8.37-12.03c-0.82-1.18-2.43-1.5-3.64-0.73c-1.22,0.77-1.6,2.36-0.88,3.61l2.39,4.12l-3-3.49c-0.9-1.05-2.45-1.24-3.58-0.44
			c-1.13,0.8-1.47,2.32-0.78,3.52l4.51,7.89l-1.6-1.79c-0.9-1-2.4-1.18-3.51-0.43s-1.49,2.22-0.89,3.42l15.44,30.88
			c0.66,1.33,2.27,1.86,3.6,1.2C412.76,574.83,413.29,573.22,412.63,571.89L412.63,571.89z"/>
		<path d="M952.24,422.2l3.3,9.9c0.39,1.18,1.54,1.93,2.78,1.82c1.24-0.11,2.24-1.05,2.42-2.28l1.98-13.37l-2.65-0.39l-2.51,0.94
			c0,0.01,1.48,3.96,2.97,7.95c0.74,2,1.48,4.01,2.04,5.53c0.28,0.76,0.51,1.4,0.66,1.84l0.17,0.5l0.02,0.06l0,0.01l1.42-0.41
			l-1.44,0.34l0.02,0.07l1.42-0.41l-1.44,0.34l2.3-0.55l-2.33,0.4l0.03,0.14l2.3-0.55l-2.33,0.4l2.57-0.44l-2.61,0
			c0,0.27,0.03,0.36,0.04,0.44l2.57-0.44l-2.61,0c0,0.07,0,0.15,0.03,0.4c0.03,0.14,0.04,0.3,0.21,0.7c0.1,0.2,0.23,0.48,0.6,0.84
			c0.34,0.35,1.08,0.76,1.85,0.74c0.48,0,0.89-0.13,1.18-0.27c0.57-0.3,0.77-0.57,0.92-0.74c0.26-0.35,0.3-0.48,0.36-0.59l0.12-0.32
			l0.07-0.29c0.09-0.43,0.29-1.51,0.57-3.04c0.82-4.53,2.23-12.48,2.23-12.49l-2.64-0.47l-2.6,0.68c0,0,1.03,3.92,2.11,7.97
			c0.54,2.02,1.08,4.08,1.52,5.69c0.22,0.81,0.41,1.5,0.55,2.04c0.15,0.55,0.24,0.86,0.33,1.14c0.08,0.21,0.17,0.49,0.51,0.91
			c0.17,0.21,0.43,0.45,0.79,0.64c0.36,0.2,0.83,0.32,1.27,0.32c0.56,0,1.02-0.17,1.31-0.34c0.59-0.35,0.76-0.63,0.9-0.81
			c0.25-0.36,0.3-0.52,0.37-0.68c0.12-0.29,0.18-0.51,0.26-0.79c0.28-0.98,0.62-2.52,1.02-4.4c1.17-5.59,2.7-13.86,2.71-13.87
			l-2.64-0.49l-2.63,0.53l6.44,32.18c0.26,1.32,1.47,2.24,2.81,2.15c1.34-0.09,2.41-1.17,2.5-2.51l0.97-15.69l3.8,17.26
			c0.29,1.3,1.49,2.19,2.81,2.1c1.32-0.09,2.39-1.15,2.49-2.48l1.41-18.87l3.52,16.42c0.29,1.37,1.6,2.28,2.98,2.1
			c1.39-0.19,2.4-1.42,2.32-2.81l-0.73-12.55l3.37,13.05c0.35,1.36,1.71,2.23,3.09,1.97c1.38-0.26,2.34-1.55,2.17-2.95l-4.95-41.92
			l-2.67,0.31l-2.55,0.82c0,0.01,0.78,2.43,1.96,6.09c1.76,5.48,4.41,13.72,6.61,20.61c1.1,3.45,2.09,6.56,2.81,8.82
			c0.36,1.13,0.65,2.05,0.84,2.68c0.1,0.32,0.17,0.57,0.22,0.72l0.04,0.15l0.88-0.24l-0.89,0.21l0.01,0.03l0.88-0.24l-0.89,0.21
			l2.24-0.53l-2.27,0.42l0.02,0.11l2.24-0.53l-2.27,0.42l2.59-0.48l-2.63,0c0.01,0.36,0.04,0.41,0.04,0.48l2.59-0.48l-2.63,0h2.68
			v-2.68v2.68l1.29-2.35c-0.29-0.16-0.73-0.33-1.29-0.33v2.68l1.29-2.35l-1.29,2.35l2.15-1.6c-0.13-0.16-0.29-0.41-0.86-0.75
			l-1.29,2.35l2.15-1.6l-2.15,1.6l2.45-1.07c-0.05-0.1-0.08-0.2-0.3-0.53l-2.15,1.6l2.45-1.07l-2.41,1.05l2.51-0.79l-0.1-0.26
			l-2.41,1.05l2.51-0.79l-2.13,0.67l2.16-0.56l-0.03-0.11l-2.13,0.67l2.16-0.56l-0.36,0.09l0.37-0.09l0-0.01l-0.36,0.09l0.37-0.09
			c-0.04-0.14-0.23-1.03-0.5-2.33c-0.97-4.59-3.11-14.82-5-23.91c-0.95-4.54-1.83-8.8-2.48-11.91c-0.65-3.12-1.06-5.1-1.06-5.1
			l-2.63,0.55l-2.53,0.9l15.68,43.9c0.5,1.4,2.03,2.12,3.43,1.62c1.4-0.5,2.12-2.03,1.62-3.43l-15.68-43.9
			c-0.47-1.33-1.9-2.06-3.25-1.68s-2.19,1.75-1.9,3.13c0,0,2.25,10.85,4.51,21.7c1.13,5.43,2.26,10.85,3.12,14.92
			c0.43,2.04,0.79,3.73,1.04,4.92c0.13,0.6,0.23,1.07,0.3,1.39l0.09,0.39l0.04,0.15l0.04,0.14l0.08,0.23l0.19,0.38
			c0.07,0.11,0.16,0.26,0.41,0.51c0.13,0.12,0.3,0.28,0.59,0.44c0.29,0.16,0.73,0.33,1.29,0.33c0.71,0,1.4-0.29,1.9-0.79
			c0.5-0.5,0.79-1.19,0.79-1.9c0-0.26-0.02-0.34-0.03-0.42c-0.04-0.25-0.05-0.26-0.07-0.33c-0.06-0.21-0.13-0.44-0.25-0.83
			c-1.73-5.63-12.32-38.51-12.32-38.52c-0.42-1.32-1.77-2.09-3.13-1.8s-2.26,1.56-2.09,2.94l0.3,2.57l-0.32-1.24
			c-0.35-1.34-1.65-2.19-3.01-1.98c-1.37,0.21-2.34,1.42-2.26,2.81l0.29,5.06l-0.11-0.49c-0.28-1.31-1.47-2.21-2.81-2.12
			c-1.33,0.09-2.39,1.14-2.49,2.48l-1.44,19.23l-3.99-18.12c-0.29-1.31-1.5-2.2-2.83-2.1c-1.33,0.1-2.39,1.18-2.47,2.51l-0.88,14.25
			l-2.39-11.97c-0.25-1.26-1.36-2.17-2.65-2.16s-2.39,0.93-2.62,2.2c0,0-0.21,1.16-0.55,2.91c-0.5,2.62-1.25,6.55-1.92,9.81
			c-0.34,1.63-0.65,3.09-0.89,4.1c-0.12,0.5-0.23,0.9-0.29,1.1l-0.03,0.09l0.35,0.12l-0.34-0.14l-0.01,0.02l0.35,0.12l-0.34-0.14
			l1.86,0.77l-1.68-1.1l-0.18,0.33l1.86,0.77l-1.68-1.1l2.13,1.4l-1.68-1.91c-0.27,0.24-0.37,0.4-0.45,0.52l2.13,1.4l-1.68-1.91
			l1.74,1.98l-1.13-2.38c-0.28,0.14-0.47,0.28-0.61,0.4l1.74,1.98l-1.13-2.38l1.14,2.4v-2.66c-0.46,0-0.86,0.12-1.14,0.26l1.14,2.4
			v-2.66v2.66l1.25-2.35c-0.35-0.19-0.82-0.32-1.25-0.31v2.66l1.25-2.35l-1.25,2.34l2.23-1.43c-0.16-0.25-0.44-0.61-0.98-0.91
			l-1.25,2.34l2.23-1.43l-2.18,1.4l2.45-0.82c-0.05-0.14-0.11-0.32-0.28-0.58l-2.18,1.4l2.45-0.82l0,0c-0.07-0.23-0.42-1.5-0.85-3.1
			c-0.65-2.43-1.54-5.78-2.27-8.52c-0.73-2.74-1.29-4.87-1.29-4.88c-0.32-1.22-1.44-2.05-2.71-2c-1.26,0.05-2.31,0.97-2.53,2.21
			c0,0.01-0.69,3.88-1.38,7.75c-0.35,1.94-0.7,3.88-0.96,5.33c-0.13,0.72-0.24,1.33-0.32,1.74l-0.09,0.46l-0.01,0.05l0,0.01
			l1.75,0.4l-1.73-0.48l-0.02,0.08l1.75,0.4l-1.73-0.48l2.47,0.69l-2.39-0.92l-0.08,0.23l2.47,0.69l-2.39-0.92l2.49,0.95l-2.3-1.36
			l-0.19,0.4l2.49,0.95l-2.3-1.36l2.31,1.36l-1.89-1.9c-0.26,0.26-0.34,0.42-0.42,0.54l2.31,1.36l-1.89-1.9l1.89,1.9l-1.28-2.36
			c-0.3,0.16-0.48,0.32-0.61,0.45l1.89,1.9l-1.28-2.36l1.28,2.36v-2.68c-0.55,0-0.99,0.17-1.28,0.33l1.28,2.36v-2.68v2.68l1.85-1.94
			c-0.34-0.35-1.08-0.76-1.85-0.74v2.68l1.85-1.94l-1.85,1.94l2.58-0.74c-0.09-0.21-0.11-0.57-0.73-1.2l-1.85,1.94l2.58-0.74
			l-2.57,0.74l2.67-0.2c-0.01-0.1-0.01-0.22-0.1-0.54l-2.57,0.74l2.67-0.2l-2.64,0.19h2.65l-0.01-0.19l-2.64,0.19h2.65
			c-0.01-0.46-0.06-0.51-0.07-0.62c-0.07-0.29-0.1-0.37-0.17-0.57c-0.43-1.28-1.87-5.19-3.24-8.88c-1.36-3.67-2.63-7.05-2.63-7.05
			c-0.43-1.15-1.58-1.86-2.8-1.73c-1.22,0.13-2.19,1.06-2.37,2.28l-1.98,13.37l2.65,0.39l2.55-0.85l-3.3-9.9
			c-0.47-1.41-1.99-2.17-3.39-1.7C952.53,419.27,951.77,420.79,952.24,422.2L952.24,422.2z"/>
		<path d="M944.26,514.56c0.1,0.21,0.4,0.82,1.12,1.49c0.7,0.67,1.98,1.34,3.5,1.33c0.93,0,1.89-0.23,2.87-0.66
			c0.78-0.35,1.36-0.82,1.89-1.31c0.92-0.88,1.66-1.9,2.36-2.98c2.05-3.22,3.55-6.98,3.59-7.05l-2.49-1l-2.65,0.4l1.16,7.76
			c0.18,1.19,1.14,2.13,2.34,2.27c1.2,0.14,2.35-0.54,2.8-1.66l2.48-6.11l-2.49-1.01l-2.68,0.03l0.16,13.7
			c0.01,1.18,0.8,2.21,1.94,2.54s2.35-0.12,3-1.11l0.56-0.86l-1.12,4.52c-0.32,1.3,0.36,2.64,1.61,3.14c1.25,0.5,2.67,0,3.33-1.17
			l1.63-2.88l-1.99,11.5c-0.24,1.36,0.6,2.68,1.94,3.05s2.73-0.35,3.22-1.64l9.08-24.09l-2.51-0.95l-2.66-0.35l-2.64,19.8
			c-0.18,1.38,0.72,2.68,2.09,2.98c1.36,0.3,2.73-0.5,3.14-1.83l8.91-28.88l-2.56-0.79l-2.63-0.51l-6.27,32.18
			c-0.26,1.34,0.52,2.65,1.81,3.07c1.29,0.42,2.69-0.2,3.26-1.43l0.37-0.79l-0.61,2.28c-0.36,1.35,0.36,2.74,1.67,3.22
			c1.31,0.48,2.76-0.12,3.35-1.38l14.52-31.03l-2.43-1.14l-2.56-0.8l-9.41,30.04c-0.42,1.33,0.25,2.75,1.54,3.28
			c1.29,0.53,2.76-0.01,3.4-1.25l0.09-0.17l-2.72,8.7c-0.42,1.34,0.27,2.78,1.58,3.3c1.31,0.52,2.8-0.07,3.4-1.34l10.73-22.44
			l-2.42-1.16l-2.64-0.49l-3.63,19.64c-0.24,1.31,0.5,2.59,1.76,3.02c1.25,0.44,2.63-0.11,3.25-1.28l13.86-26.24
			c0.69-1.31,0.19-2.93-1.12-3.63c-1.31-0.69-2.93-0.19-3.63,1.12l-5.66,10.71l0.44-2.37c0.24-1.32-0.53-2.62-1.81-3.04
			c-1.28-0.42-2.67,0.18-3.25,1.39l-10.73,22.44l2.42,1.16l2.56,0.8l11.88-37.96c0.42-1.33-0.25-2.75-1.54-3.28
			c-1.29-0.53-2.76,0.01-3.4,1.25l-0.08,0.15l0.24-0.76c0.42-1.34-0.28-2.79-1.59-3.3c-1.31-0.51-2.81,0.09-3.4,1.36l-1.65,3.52
			l0.89-3.34c0.36-1.35-0.37-2.74-1.68-3.22c-1.31-0.47-2.77,0.14-3.35,1.4l-4.19,9.1l2-10.27c0.27-1.4-0.6-2.77-1.98-3.12
			c-1.38-0.35-2.8,0.45-3.22,1.81l-8.91,28.88l2.56,0.79l2.66,0.35l2.64-19.8c0.18-1.35-0.69-2.63-2.01-2.96
			c-1.32-0.33-2.69,0.38-3.17,1.66l-9.08,24.09l2.51,0.95l2.64,0.46l4.62-26.74c0.22-1.29-0.51-2.55-1.74-2.98s-2.6,0.07-3.24,1.21
			l-9.24,16.34l2.34,1.32l2.6,0.65l4.95-19.97c0.32-1.27-0.33-2.58-1.53-3.11c-1.2-0.52-2.6-0.1-3.32,1l-4.42,6.78l-0.06-4.85
			c-0.02-1.28-0.93-2.37-2.19-2.6c-1.26-0.24-2.5,0.44-2.98,1.63l-2.48,6.11l2.49,1.01l2.65-0.4l-1.16-7.76
			c-0.18-1.19-1.14-2.13-2.34-2.27c-1.2-0.14-2.35,0.54-2.8,1.66l-0.03,0.08c-0.17,0.42-1.05,2.49-2.17,4.52
			c-0.56,1.01-1.18,2.01-1.75,2.74c-0.28,0.37-0.55,0.66-0.76,0.86l-0.25,0.21l-0.07,0.04l-0.01,0.01c-0.42,0.19-0.63,0.2-0.69,0.2
			l-0.02,0l-0.06,0.28l0.2-0.2l-0.15-0.08l-0.06,0.28l0.2-0.2l-0.57,0.54l0.7-0.32l-0.13-0.22l-0.57,0.54l0.7-0.32
			c-0.62-1.35-2.22-1.93-3.56-1.31C944.23,511.62,943.64,513.22,944.26,514.56L944.26,514.56z"/>
	</g>
	<g>
		<path d="M1718.89,1669.77c-0.02,0.02-0.04,0.03-0.06,0.05c-1.79,1.6-1.3,4.53,0.93,5.44c21.23,8.7,45.13,15.2,67.4,6.6
			c16.55-6.56,33.93-17.93,39.27-35.67c-15.49,6.86-25.49,22.31-42.16,27.18c-20.51,8.38-42.21,1.46-62.34-4.29
			C1720.86,1668.77,1719.72,1669.03,1718.89,1669.77z"/>
		<path d="M1716.85,1681.26c-2.27-2.2-5.85,0.53-4.34,3.31c0.82,1.5,1.48,2.78,1.79,3.61c1.39,3.69-1.3,7.71-5.22,7.81
			c-1.91,0.05-3.85,0.01-5.7,0.23c-21.98,2.6-44.95-6.22-59.79-22.71c-2.27-2.52-6.51-0.87-6.47,2.52
			c0.09,7.31,0.68,14.61,1.77,21.84c-10.02,0.96-19.79-4.54-26.53-12.07c-5.25-5.87-8.74-15.53-11.98-23.89
			c-0.72-1.85-3.43-1.51-3.67,0.46c-1.31,10.82-2.92,25.67-5.92,33.3c-2.95,7.5-7.37,10.2-14.29,16.48
			c-2.05,1.86-5.39-0.09-5.35-2.85c0.13-8.28,0.47-17.47,0.47-25.11c0-1.68-0.14-3.63-1.53-4.57c-1.6-1.08-3.88,0.03-4.87,1.69
			c-0.99,1.66-1.1,3.68-1.48,5.58c-1.18,5.99-5.18,11.18-10.19,14.6c-5.02,3.42-10.99,5.21-17,6.03c-8.94,1.22-1.26,6.77,3.85,6.67
			c8.62-0.16,16.1-5.72,22.91-11.05c0.74,2.83,0.5,5.81,0.91,8.7c0.41,2.89,1.71,5.96,4.36,7.15c2.97,1.33,6.37-0.14,9.27-1.6
			c3.94-1.97,7.89-3.95,11.83-5.92c1.45-0.72,2.93-1.48,3.99-2.71c1.15-1.34,1.65-3.11,2.07-4.83c1.65-6.72,2.65-15.26,2.62-22.18
			c9.96,11.14,21.79,23.73,36.61,25.15c1.95,0.19,3.98,0.19,5.8-0.54c3.04-1.22,5.01-4.33,5.74-7.54c0.73-3.21,0.42-6.56,0.11-9.84
			c16.28,13.85,38.86,17.94,60.14,16.82c3.57-0.19,7.2-0.53,10.48-1.95c3.28-1.43,6.19-4.12,7.05-7.61
			c0.92-3.73-0.67-7.72-3.18-10.61C1720.28,1684.66,1718.7,1683.04,1716.85,1681.26z"/>
		<path d="M1905.49,1521.75c-1.25,14.63-6.52,29.11-17.19,39.63c-6.65,7.32-16.95,10.4-22.59,18.77c16.16,0.24,28.87-12.33,36.89-25
			C1908.9,1545.36,1914.88,1531.67,1905.49,1521.75z"/>
		<path d="M1861.32,1623.47c8.2-5.86,18.89-10.38,24.59-19c3.33-4.6,7.26-12.02,6.93-18.42c-0.14-2.76-3.91-3.59-5.03-1.06
			c-1.84,4.16-2.59,9.6-5.01,12.65c-10.38,15.93-30.41,19.43-46.5,27.18c-2.76,1.33-1.71,5.48,1.36,5.32
			c5.85-0.29,12.46-2.49,18.24-3.49c-5.81,7.96-17.08,8.18-25.82,10.25c-1.27,0.3-2.14,1.47-2.01,2.77c0,0.01,0,0.03,0,0.04
			c0.09,0.99,0.74,1.87,1.68,2.18c5.06,1.69,11.11,1.5,16.78-0.05C1854.86,1639.56,1860.72,1632.08,1861.32,1623.47L1861.32,1623.47
			z"/>
		<path d="M1887.27,1424.34c42.62,29.08,27.63,91.72-7.37,120.75c-1.01,0.84-2.51,0.71-3.35-0.29c-0.79-0.93-0.71-2.27,0.08-3.13
			c6.67-8.27,12.42-17.55,16.92-27.1c13.95-28.94,14.96-62.81-8.5-87.29C1883.37,1425.84,1885.38,1423.12,1887.27,1424.34z"/>
	</g>
</g>
</svg>
